<svg width="331" height="330" viewBox="0 0 331 330" fill="none" xmlns="http://www.w3.org/2000/svg">
<path d="M11.4587 62.6647C24.5676 81.135 44.0035 97.1776 63.4791 113.253C77.5177 124.841 91.5769 136.445 103.302 148.988C122.521 169.55 135.094 192.199 147.67 214.855C152.824 224.14 157.979 233.427 163.592 242.571C182.901 274.027 209.792 305.451 253.926 323.601C262.113 326.967 271.373 329.911 280.973 329.447C311.757 327.964 320.663 302.222 323.516 286.274C330.784 245.658 331.126 204.61 328.563 163.718C327.276 143.213 325.24 122.725 322.979 102.249C322.797 100.555 322.627 98.8684 322.458 97.1892C322.376 96.3847 322.296 95.5819 322.214 94.7811C320.713 80.0978 318.666 66.0604 304.531 53.393C293.494 43.5029 277.294 36.5807 260.816 30.7013M11.4587 62.6647L11.8665 62.3753C23.1037 78.2085 39.0199 92.2666 55.6631 106.132C58.3588 108.378 61.0738 110.619 63.7906 112.862C77.829 124.449 91.918 136.078 103.667 148.647C117.251 163.179 127.518 178.746 136.798 194.601C140.694 201.256 144.408 207.947 148.119 214.633C153.265 223.905 158.406 233.166 164.018 242.309C183.296 273.714 210.115 305.043 254.117 323.138C262.283 326.497 271.461 329.406 280.949 328.948C296.181 328.214 305.969 321.489 312.318 312.986C318.682 304.461 321.603 294.127 323.024 286.185C330.282 245.624 330.626 204.62 328.064 163.749C326.778 143.256 324.743 122.777 322.482 102.304L322.482 102.303C322.299 100.606 322.129 98.9156 321.96 97.2345C321.879 96.4313 321.798 95.6303 321.716 94.8319C320.218 80.1657 318.183 66.2986 304.198 53.7653C293.24 43.9469 277.125 37.0512 260.648 31.1724M11.4587 62.6647C5.43519 54.1781 0.783911 45.0983 0.613636 35.7994C0.443361 26.5005 5.19463 16.9183 15.6359 10.6403M11.4587 62.6647L11.8665 62.3753C5.85993 53.9127 1.28101 44.9354 1.11355 35.7903C0.946715 26.6791 5.59754 17.2595 15.8936 11.0688M260.648 31.1724L260.816 30.7013M260.648 31.1724C260.648 31.1724 260.648 31.1723 260.648 31.1722L260.816 30.7013M260.648 31.1724C200.403 9.76187 132.448 -0.55442 64.2271 1.35831M260.816 30.7013C200.509 9.26868 132.491 -1.05586 64.2128 0.858514M64.2128 0.858514L64.2274 1.3583C64.2273 1.3583 64.2272 1.35831 64.2271 1.35831M64.2128 0.858514L64.2268 1.35832C64.2269 1.35832 64.227 1.35831 64.2271 1.35831M64.2128 0.858514C46.8598 1.36475 28.3091 3.02365 15.6359 10.6403M64.2271 1.35831C46.8622 1.86491 28.4398 3.52848 15.8936 11.0688M15.6359 10.6403L15.8936 11.0688M15.6359 10.6403L15.8935 11.0689C15.8935 11.0688 15.8936 11.0688 15.8936 11.0688" fill="#F8EFD7" stroke="#F8EFD7"/>
</svg>
