<svg width="368" height="363" viewBox="0 0 368 363" fill="none" xmlns="http://www.w3.org/2000/svg">
<path d="M102.746 107.397L102.748 107.39L102.75 107.383C107.798 90.5997 111.13 73.4277 112.703 56.0967C119.145 25.861 139.782 8.61211 162.981 3.02397C186.212 -2.57172 211.993 3.52943 228.666 19.9999L228.675 20.0089L228.685 20.0174C242.671 32.49 269.607 67.0069 295.223 104.909C320.838 142.81 345.063 183.993 353.668 209.776L353.676 209.801L353.687 209.826C372.053 249.872 375.127 291.566 342.57 320.652L342.563 320.658L342.556 320.665C335.455 327.531 322.372 334.388 305.288 340.493C288.222 346.593 267.219 351.921 244.33 355.757C198.547 363.43 145.276 365.119 100.933 355.09C33.2592 339.783 -9.39391 289.653 2.65351 236.982C14.5792 208.048 32.4165 192.992 50.4051 177.808C51.4161 176.954 52.4276 176.101 53.4386 175.244C72.4566 159.128 91.2428 142.014 102.746 107.397Z" stroke="#F8EFD7"/>
</svg>
