<svg width="300" height="332" viewBox="0 0 300 332" fill="none" xmlns="http://www.w3.org/2000/svg">
<path d="M219.911 169.75L219.911 169.75L219.922 169.742C234.214 159.183 249.472 149.999 265.494 142.312C292.181 125.622 301.491 101.115 298.779 78.6077C296.063 56.0686 281.291 35.5131 259.755 26.7644L259.744 26.7596L259.732 26.7543C226.121 11.0778 167.982 -1.74335 112.631 1.79198L112.606 1.7936L112.58 1.79265C67.9021 0.113825 26.953 12.5563 10.4504 51.9024L10.4466 51.9116L10.4424 51.9207C6.82275 59.6684 4.25192 70.7492 2.7482 84.1044C1.24538 97.4517 0.811769 113.039 1.44832 129.779C2.7215 163.261 8.27431 201.324 18.0911 235.261C27.913 269.216 41.9819 298.966 60.2384 315.897C69.3571 324.354 79.5013 329.595 90.672 330.592C101.833 331.587 114.082 328.35 127.43 319.738C150.983 298.654 159.925 274.156 169.001 249.29C169.497 247.93 169.994 246.569 170.494 245.207C180.13 218.945 190.804 192.5 219.911 169.75Z" stroke="#F8EFD7"/>
</svg>
