<svg width="284" height="319" viewBox="0 0 284 319" fill="none" xmlns="http://www.w3.org/2000/svg">
<path d="M1.30981 241.259L0.813988 241.324L1.30981 241.259C-1.01495 223.391 10.3772 205.488 24.0022 191.945C34.7484 181.263 46.949 172.276 59.5842 163.753C64.5325 160.415 69.5544 157.144 74.5811 153.87C82.3704 148.796 90.1713 143.715 97.7281 138.366C122.615 120.75 146.484 98.0317 154.131 69.277L153.647 69.1485L154.131 69.2769C155.764 63.1282 156.607 56.8634 157.444 50.6372C157.498 50.2373 157.552 49.8375 157.606 49.438C158.501 42.8062 159.448 36.2251 161.39 29.8067C165.275 16.9634 174.84 4.07909 188.078 1.93911C208.533 -1.36348 224.976 10.4093 237.75 26.6796C250.519 42.9433 259.526 63.587 265.097 77.7415C280.325 116.445 288.846 159.458 277.444 201.786C263.126 254.935 216.412 300.335 161.91 314.051C107.411 327.766 47.8134 309.128 14.4984 267.995C8.13919 260.143 2.6152 251.302 1.30981 241.259Z" fill="#F8EFD7" stroke="#F8EFD7"/>
</svg>
