<svg width="787" height="732" viewBox="0 0 787 732" fill="none" xmlns="http://www.w3.org/2000/svg">
<path d="M-61.0078 589.344C-42.7333 599.993 -22.618 607.106 -1.71269 610.311C28.6463 615.167 58.9934 614.497 89.3882 611.28C129.552 607.022 168.759 598.23 207.416 586.748C214.089 584.763 214.16 584.356 209.915 578.734C194.371 558.114 186.97 534.479 184.973 509.063C179.676 441.747 202.155 383.367 243.383 331.481C252.459 320.058 257.242 306.71 264.356 294.403C268.673 286.975 272.236 279.057 277.007 271.94C282.579 263.568 285.377 254.489 287.529 244.084C280.917 246.057 274.233 245.196 267.907 247.385C265.516 248.198 262.742 249.31 260.506 248.784C251.191 246.607 241.434 250.399 232.694 247.827C220.199 244.143 206.388 245.567 195.005 239.73C179.592 231.8 162.482 228.846 147.177 220.963C144.056 219.349 140.923 217.746 137.85 216.047C136.487 215.294 134.347 214.505 134.108 213.404C132.434 205.534 125.738 207.364 120.74 206.299C101.513 202.197 83.5532 194.422 65.3426 187.413C62.7001 186.397 59.2086 185.452 59.4358 181.768C59.6629 178.084 63.4892 178.18 66.1078 177.223C67.1481 176.828 68.2123 176.493 69.8623 175.943C68.7982 175.752 68.3677 175.536 68.0688 175.644C54.3421 180.835 41.7632 176.972 29.2083 171.206C22.1178 167.941 14.5848 165.657 7.68556 161.817C5.21045 160.43 1.61137 159.605 1.98204 155.956C2.35271 152.308 5.9757 151.914 8.61822 151.029C24.0299 145.959 39.9464 142.578 56.0878 140.946C106.798 135.324 156.683 140.862 206.125 151.997C214.077 153.78 222.028 153.421 230.039 153.827C262.849 155.49 294.799 161.291 325.313 173.85C336.792 178.634 336.601 178.515 344.731 169.066C348.893 164.281 351.726 159.389 352.527 152.727C354.19 138.924 361.675 127.944 371.958 118.902C384.225 107.839 399.299 100.365 415.529 97.3008C419.989 96.4635 424.724 94.6814 428.574 99.2504C430.057 101.009 430.858 98.7959 431.791 98.0543C455.502 79.8739 482.537 68.1524 510.325 58.0455C512.023 57.4235 513.912 56.359 516.16 57.579C515.765 60.1984 513.374 60.5333 511.676 61.4184C492.322 71.6297 473.531 82.8731 455.382 95.1C432.664 110.159 419.882 130.217 416.127 157.739C411.715 190.033 405.713 222.171 395.262 253.234C386.82 278.351 375.629 301.782 356.33 320.597C343.096 333.466 326.843 342.805 309.064 347.76C307.677 348.154 305.763 349.41 304.819 347.664C303.874 345.918 305.943 345.499 307.103 345.056C309.614 344.124 308.298 343.502 307.103 342.664C306.84 342.473 306.923 341.205 306.971 341.193C311.598 340.404 311.024 334.304 315.544 333.048C318.055 332.342 320.004 330.488 317.577 326.816C315.15 323.144 318.605 319.64 323.089 320.238C325.062 320.525 327.095 322.486 328.924 319.963C328.769 319.64 328.613 319.042 328.482 319.042C309.064 320.058 298.828 307.535 290.219 292.872C286.692 286.891 286.871 286.628 282.088 291.759C273.814 300.61 265.588 309.497 257.517 318.527C252.327 324.34 250.797 331.9 248.716 339.256C254.886 332.294 260.912 325.214 267.262 318.42C271.793 313.635 276.827 309.174 281.514 304.521C284.025 302.057 285.962 301.866 287.864 305.323C292.921 314.509 299.916 321.577 309.984 325.297C314.54 326.984 312.555 329.484 310.08 331.146C304.233 335.045 298.266 338.789 292.144 342.306C273.898 352.867 254.743 361.969 238.899 376.286C237.919 377.171 236.807 378.403 235.312 377.315C234.272 376.537 234.487 375.198 234.679 374.037C235.24 371.005 235.619 367.941 235.815 364.864C228.21 375.992 222.43 388.262 218.692 401.212C228.604 389.921 238.792 379.157 253.571 374.372C236.209 384.611 223.535 399.287 213.347 416.821C210.681 413.986 211.984 411.714 212.498 409.645C216.531 393.49 223.244 378.126 232.359 364.194C238.863 354.204 243.746 343.248 246.827 331.732C244.005 335.32 242.044 337.713 240.227 340.176C238.409 342.64 236.52 345.212 234.726 347.772C211.769 380.604 195.639 416.331 189.78 456.172C184.423 492.557 185.583 528.296 202.729 562.001C205.976 568.024 209.707 573.772 213.885 579.189C216.564 582.861 219.266 583.411 223.379 582.083C252.618 572.784 281.272 561.732 309.183 548.988C350.722 529.851 392.643 511.61 436.873 499.398C455.908 494.148 475.135 489.926 495.163 490.512C501.421 490.633 507.613 491.806 513.482 493.98C524.661 498.19 529.935 508.034 527.172 519.756C524.147 532.542 516.674 542.792 508.041 552.265C485.717 576.809 457.965 593.016 427.295 604.893C398.156 616.207 368.239 624.341 337.055 626.601C299.546 629.328 263.71 623.826 232.311 601.005C227.924 597.739 223.746 594.2 219.804 590.408C217.58 588.315 215.715 587.585 212.63 588.518C171.199 600.945 129.134 610.634 86.0403 614.904C46.3786 618.839 6.84856 618.875 -31.6771 606.184C-41.9363 602.799 -51.49 597.967 -60.9719 592.92L-61.0078 589.344ZM321.463 624.269C323.412 624.185 325.373 624.149 327.31 623.994C329.247 623.838 331.196 623.527 333.145 623.396C384.62 619.808 432.389 604.606 475.637 576.354C490.668 566.735 503.753 554.372 514.211 539.91C518.791 533.499 522.425 526.633 524.004 518.811C526.395 507.041 521.505 499.064 509.823 495.81C493.872 491.361 477.981 493.681 462.21 496.612C432.891 502.066 404.935 512.161 377.195 522.782C351.105 532.805 325.779 544.658 300.335 556.14C276.05 566.926 251.176 576.33 225.83 584.308C221.621 585.672 220.617 586.904 224.24 590.288C229.923 595.664 236.155 600.426 242.833 604.498C266.999 619.21 293.758 623.587 321.463 624.269ZM276.875 242.325C287.445 243.21 292.754 237.027 297.358 229.599C298.816 227.207 297.92 225.688 296.437 223.882C285.939 211.012 275.464 198.106 262.957 187.066C244.794 171.039 224.24 159.078 200.517 153.839C157.819 144.45 114.582 139.869 70.8189 142.836C50.1451 144.235 29.6268 147.01 9.90958 153.923C8.48669 154.426 6.32245 154.485 6.04743 156.136C5.70068 158.337 8.12798 158.684 9.57478 159.449C19.9774 164.903 31.2888 168.24 42.0024 172.965C47.4051 175.333 53.4437 175.83 59.1607 174.376C72.8738 171.261 86.7912 169.127 100.807 167.989C127.705 166.093 154.706 166.189 181.589 168.276C195.427 169.139 209.185 170.993 222.757 173.826C224.718 174.245 227.935 174.197 227.325 177.067C226.775 179.639 223.834 178.766 221.729 178.503C221.155 178.431 220.533 178.275 220.007 178.18C187.986 173.072 155.953 168.085 123.322 170.812C104.418 172.379 85.6815 174.962 67.3513 179.986C65.9524 180.368 63.7642 180.093 63.6925 182.151C63.6207 184.208 65.773 184.244 67.1481 184.818C84.3666 192.256 102.116 198.397 120.249 203.19C125.567 204.488 131.102 204.619 136.475 203.572C153.777 200.546 170.84 196.228 188.345 194.279C203.889 192.545 219.433 190.918 235.073 191.396C236.938 191.396 239.689 191.049 239.724 193.657C239.724 196.623 236.891 196.372 234.81 196.324C231.689 196.324 228.569 195.642 225.472 195.786C206.163 196.653 186.916 198.566 167.815 201.515C158.177 203.022 148.396 203.907 139.201 207.495C137.814 208.034 135.937 208.393 135.973 210.39C135.973 211.957 137.563 212.531 138.711 213.177C144.486 216.466 150.549 219.157 156.551 222.004C167.193 227.016 177.739 228.14 188.835 223.511C194.587 221.119 200.673 219.516 206.496 217.267C219.445 212.292 232.395 207.34 245.763 203.56C247.52 203.058 250.031 201.659 251 203.967C252.196 206.909 249.051 207.4 247.257 208.022C238.569 210.988 229.84 213.835 221.071 216.562C208.277 220.533 195.244 224.001 183.168 230.652C183.543 231.209 183.985 231.719 184.483 232.171C201.306 242.852 215.571 242.481 231.558 230.975C232.347 230.4 233.112 229.778 233.949 229.228C243.851 222.25 254.108 215.79 264.679 209.876C266.15 209.05 268.123 207.735 269.378 209.648C270.634 211.562 268.768 212.854 267.441 213.99C266.556 214.756 265.552 215.378 264.595 216.059C254.181 223.391 242.857 229.216 231.737 235.268C229.372 236.627 227.121 238.175 225.005 239.897C223.499 241.093 223.284 242.361 225.209 243.593C231.115 247.361 246.588 245.674 251.658 240.687C259.585 232.876 267.596 225.138 274.723 216.55C275.847 215.198 277.485 212.962 279.506 214.911C281.347 216.669 279.685 218.619 278.382 220.006C275.904 222.767 273.23 225.345 270.382 227.721C264.093 232.685 258.844 238.605 253.164 244.526C262.467 247.492 269.103 245.65 274.436 238.677C278.107 233.893 281.455 228.798 285.078 223.954C286.07 222.626 287.469 220.365 289.227 221.561C291.546 223.068 289.573 225.15 288.581 226.609C284.874 231.848 280.94 236.907 276.875 242.325ZM327.944 316.243C331.722 316.949 336.314 314.377 340.857 309.856C363.576 287.13 378.821 260.015 389.367 229.97C389.895 228.5 389.987 226.909 389.63 225.389C387.188 215.122 383.715 205.127 379.263 195.559C377.96 192.664 376.095 192.042 373.165 193.166C368.251 195.056 363.253 196.755 358.279 198.465C356.139 199.219 354.393 200.235 354.393 202.915C354.393 214.026 348.546 222.47 341.754 230.424C327.585 247.169 311.658 262.108 296.21 277.55C288.904 284.846 288.593 285.049 294.01 293.637C301.375 305.287 309.841 315.681 327.944 316.243ZM232.096 162.068C244.365 168.542 255.756 176.557 265.994 185.918C277.302 196.4 287.65 207.872 296.915 220.198C299.45 223.523 301.423 224.492 304.424 220.425C309.984 212.902 315.891 205.642 321.87 198.393C324.129 195.642 323.771 194.315 320.435 192.903C291.642 180.787 262.443 169.843 232.096 162.068ZM238.708 371.801C249.661 363.069 261.606 356.252 273.515 349.326C283.619 343.466 293.77 337.665 303.898 331.828C307.115 329.974 308.466 328.383 304.006 326.015C297.012 322.413 291.182 316.901 287.194 310.119C284.803 306.04 283.105 306.925 280.247 309.581C267.931 321.039 257.182 333.837 246.935 347.15C241.291 354.505 240.466 363.117 238.708 371.801ZM410.651 120.445L395.525 124.547C394.186 124.906 392.703 125.265 391.783 123.914C390.862 122.562 391.783 121.342 392.572 120.194C395.429 115.828 404.529 112.072 409.694 113.125C417.108 114.62 419.738 113.34 422.979 106.343C423.851 104.465 425.669 102.324 424.306 100.363C422.943 98.4012 420.276 99.2504 418.327 99.669C399.196 103.712 382.145 111.869 368.67 126.425C362.524 133.04 358.184 141.126 356.067 149.904C355.684 151.459 354.345 155.514 358.243 153.708C369.208 148.613 381.212 145.933 391.46 139.259C398.574 134.618 405.569 129.715 410.651 120.445ZM286.226 267.766C286.584 270.278 286.871 272.789 287.349 275.265C287.636 276.725 287.086 278.854 288.892 279.38C290.697 279.906 291.57 278.1 292.623 276.988C305.967 263.568 319.442 250.279 332.523 236.62C339.53 229.3 346.274 221.597 349.885 211.873C351.009 208.859 353.221 204.434 350.423 202.639C347.314 200.618 343.607 204.063 340.499 205.953C338.705 207.053 338.586 209.242 338 211.096C333.827 224.432 326.055 230.843 312.304 231.776C311.05 231.835 309.828 232.191 308.739 232.815C307.65 233.439 306.724 234.313 306.038 235.364C300.598 242.744 295.134 250.1 289.573 257.384C287.149 260.277 285.948 264.001 286.226 267.766ZM415.206 147.644C398.945 160.143 392.249 163.348 375.832 166.661C371.049 167.63 365.668 169.783 361.483 167.271C353.317 162.356 349.646 167.056 345.796 172.821C344.6 174.591 343.117 176.17 341.826 177.881C340.845 179.184 338.849 180.512 341.132 182.21C343.105 183.682 344.385 182.079 345.509 180.715C347.362 178.455 348.976 175.931 350.973 173.862C356.653 167.881 362.392 167.69 368.167 173.599C370.796 176.223 373.068 179.183 374.923 182.402C377.721 187.425 380.662 186.899 384.8 184.076C392.739 178.67 398.526 171.41 403.692 163.516C404.397 162.427 404.983 160.597 406.55 161.052C408.642 161.662 407.685 163.611 407.506 165.059C405.972 179.23 403.293 193.254 399.495 206.993C396.003 219.121 391.304 231.07 395.011 243.988C404.505 213.069 408.905 180.871 415.206 147.644ZM424.103 112.742C420.91 115.996 415.972 116.689 414.118 120.433C407.948 132.884 396.996 139.726 385.421 145.945C377.972 149.928 369.614 151.531 362.165 155.418C359.666 156.71 355.947 157.81 356.832 161.327C357.645 164.604 361.352 164.544 364.281 164.604C378.367 164.867 391.113 160.238 403.07 153.361C409.774 149.551 414.872 143.441 417.418 136.161C420.085 128.518 421.89 120.565 424.103 112.742ZM228.999 157.212C260.35 166.098 291.076 177.058 320.973 190.021C326.341 192.317 330 190.703 332.643 184.483C335.034 178.945 329.379 179.017 326.832 177.893C295.684 164.257 262.67 159.078 228.999 157.212ZM390.91 234.957C379.503 264.859 364.52 290.85 341.336 313.456C365.644 307.524 396.254 265.745 390.91 234.957ZM391.914 220.904C397.127 208.644 403.512 178.024 402.03 171.206C396.515 178.456 389.758 184.668 382.073 189.554C380.639 190.475 380.758 191.863 381.44 193.143C385.876 201.802 388.829 211.036 391.914 220.904ZM374.863 187.784C373.572 185.751 372.209 183.395 370.642 181.182C362.272 169.388 355.313 169.783 347.924 182.378C347.828 182.545 347.721 182.701 347.613 182.868C346.978 183.615 346.644 184.572 346.677 185.552C346.71 186.532 347.108 187.465 347.792 188.167C349.365 190.134 350.78 192.222 352.025 194.41C352.173 194.77 352.392 195.096 352.67 195.368C352.947 195.641 353.277 195.854 353.639 195.995C354.002 196.135 354.389 196.201 354.777 196.188C355.166 196.175 355.548 196.083 355.899 195.917C361.424 194.052 366.972 192.234 372.484 190.344C373.584 189.997 374.851 189.674 374.863 187.784ZM363.289 306.543C355.636 310.562 348.402 314.915 340.128 317.499C329.426 320.872 322.838 328.264 320.781 340.511C338.705 332.94 353.066 322.415 363.289 306.531V306.543ZM427.857 115.17C444.143 97.229 465.008 85.2682 484.94 72.1114C469.814 77.7449 456.004 85.639 442.301 93.88C438.439 96.0948 435.13 99.1592 432.625 102.841C430.121 106.524 428.486 110.727 427.845 115.134L427.857 115.17ZM261.893 308.935L283.894 285.755C284.479 285.241 284.921 284.584 285.176 283.848C285.432 283.112 285.493 282.323 285.353 281.557C284.528 277.346 283.786 273.184 282.889 268.185C274.268 281.497 267.142 294.594 261.881 308.911L261.893 308.935ZM332.081 199.745C331.806 198.046 330.646 197.688 329.582 197.257C327.549 196.432 326.27 197.544 325.11 199.003C318.82 206.909 312.507 214.804 306.266 222.757C305.285 223.954 303.312 225.52 305.512 227.135C307.306 228.451 308.788 226.908 310.044 225.7C317.572 218.663 324.381 210.894 330.371 202.508C331.076 201.503 331.603 200.475 332.081 199.745ZM334.197 209.804C325.683 214.496 318.277 220.966 312.483 228.774C324.608 228.056 332.978 220.796 334.197 209.744V209.804Z" fill="#14594C"/>
</svg>
