<svg width="194" height="208" viewBox="0 0 194 208" fill="none" xmlns="http://www.w3.org/2000/svg">
<path d="M61.9244 166.021L61.4144 166.017C54.8221 160.758 47.5578 156.403 39.8136 153.066C39.6203 152.988 39.4127 152.951 39.2043 152.957C38.9959 152.964 38.7912 153.014 38.6032 153.104L36.6242 150.836C35.4493 149.205 34.375 147.505 33.3307 145.805C29.5179 139.62 25.6303 132.883 18.5658 130.098C17.9581 129.852 17.5603 130.688 17.9566 131.092L30.3766 145.158C31.4767 147.308 32.5567 149.468 33.7784 151.45C34.8286 153.147 36.0614 154.725 37.4549 156.154C37.4533 156.324 37.4517 156.494 37.5301 156.665C29.3207 152.099 21.5291 146.82 14.2455 140.888C13.7591 140.503 13.0834 141.107 13.5391 141.581C20.5353 148.697 28.8252 154.411 37.9639 158.419C38.5992 160.253 39.5933 161.942 40.8882 163.387C42.1831 164.833 43.7529 166.006 45.5061 166.839C48.1641 168.077 51.0226 168.828 53.9458 169.057C55.1547 169.189 56.495 169.161 57.8549 169.174C72.1455 178.877 77.6007 196.658 91.0009 207.483C92.3315 208.495 94.5333 207.236 93.5288 205.566C87.7474 195.942 81.4648 186.627 74.7069 177.66C75.7036 178.02 76.7006 178.349 77.758 178.639C81.81 181.677 86.0534 184.556 90.3984 187.277C101.922 194.484 114.274 200.839 127.492 204.301C148.222 209.754 170.912 206.604 184.856 189.043C190.371 182.094 194.003 173.267 193.466 164.282C192.831 154.006 186.994 145.081 179.345 138.5C171.09 131.423 160.944 125.588 150.306 123.16C141.523 121.174 132.44 120.896 123.552 122.341C129.008 107.691 130.302 91.1426 128.47 76.245C126.639 62.3786 122.842 48.8438 117.193 36.0486C112.592 25.3255 107.404 13.1868 97.9731 5.74897C94.0023 2.58199 89.022 0.435684 83.8181 0.827414C78.1939 1.25525 73.4226 4.61112 69.5266 8.47513C61.3306 16.6194 54.8938 27.0202 49.9873 37.4051C49.5996 38.2315 49.2319 39.0581 48.8642 39.8848C44.904 37.1506 40.6091 34.9362 36.0848 33.2959C25.5688 29.5782 12.6814 29.2386 5.4098 39.0815C-1.86185 48.9245 -0.23116 61.7901 4.17029 72.4314C9.65701 85.7429 17.6704 98.3478 25.328 110.499C31.7437 120.689 38.7137 130.424 45.6429 140.239C49.9257 149.505 55.3991 158.172 61.9244 166.021ZM48.0778 41.6475C44.3005 50.9565 41.4313 60.6086 39.51 70.4693C37.1133 81.9575 35.8646 93.6665 37.0859 105.388C37.8927 113.817 39.5134 122.148 41.9253 130.264C41.8736 130.205 41.8274 130.141 41.7871 130.073C33.9851 119.47 26.7868 108.473 20.0916 97.1502C13.5829 86.1994 5.74157 74.4561 3.23906 61.7823C0.888568 49.97 5.5619 35.6228 18.8635 33.3561C28.6995 31.6773 39.6788 36.1194 48.0878 41.6476L48.0778 41.6475ZM51.3267 43.9378C67.8324 56.3315 77.3178 76.2704 80.3717 96.3396C83.3876 116.198 80.381 138.451 69.4805 155.691C65.8287 155.867 64.1189 154.761 61.4196 152.516C59.4352 150.828 57.1909 149.127 55.2781 147.269C48.2168 130.241 44.2731 112.082 43.635 93.6585C43.2255 82.8243 43.4036 72.2555 45.8419 61.6777C47.2294 55.6359 49.0661 49.7061 51.3367 43.9379L51.3267 43.9378ZM117.853 123.338L117.751 123.488L116.889 123.71C99.3256 128.337 85.4054 140.148 73.0742 153.154C73.7154 151.95 74.3368 150.726 74.9084 149.481C84.8792 127.883 85.35 101.936 77.6172 79.5733C72.6594 65.2967 64.0566 51.5562 52.0532 42.1644C53.424 38.847 54.9244 35.5808 56.6039 32.4063C59.0589 27.7154 61.841 23.2031 64.9296 18.9029C68.3438 14.1544 72.1305 9.13932 77.1397 6.01567C88.8388 -1.37609 99.4434 7.8727 105.704 17.5612C112.487 28.0546 117.494 40.2416 121.284 52.0873C125.269 64.4748 127.66 77.3875 127.249 90.4343C126.878 102.341 124.068 113.116 117.863 123.339L117.853 123.338ZM91.6733 142.566C97.8814 138.642 104.453 135.324 111.296 132.658C107.227 137.688 102.504 142.151 97.2523 145.928C90.775 150.557 83.3398 153.67 75.4969 155.037C80.4727 150.379 85.879 146.203 91.6433 142.566L91.6733 142.566ZM86.2039 180.197C92.9484 180.82 101.388 179.858 104.272 172.935C107.198 165.801 100.885 159.633 94.688 157.155C100.256 153.919 105.323 149.89 109.73 145.194C113.987 140.65 117.553 135.504 120.312 129.922C121.073 129.749 121.845 129.586 122.606 129.433C132.682 127.627 143.036 128.12 152.894 130.874C163.099 133.639 172.295 137.414 179.995 144.926C187.131 151.903 191.316 161.102 189.492 171.155C187.911 179.941 182.548 187.722 175.805 193.399C158.791 207.732 135.199 204.653 116.022 196.725C105.472 192.376 95.4575 186.831 86.1739 180.197L86.2039 180.197ZM67.73 164.365C72.1761 164.806 76.9048 163.89 81.045 162.809C84.392 161.931 87.6454 160.729 90.7587 159.219C96.6677 160.434 103.708 164.779 101.978 171.193C99.9051 179.054 88.7401 178.461 82.2013 177.22C77.0685 173.285 72.2224 168.989 67.7 164.365L67.73 164.365ZM69.0394 175.208C69.3885 175.671 69.7175 176.134 70.0266 176.597C69.5914 176.073 69.1359 175.589 68.6911 175.025L69.0394 175.208ZM44.1667 161.376C45.8967 162.463 47.7075 163.459 49.5786 164.427C47.5787 163.805 45.7338 162.766 44.1667 161.376ZM28.264 141.118L20.9722 132.66C24.163 134.74 26.3848 137.79 28.264 141.118Z" fill="#258F7D"/>
</svg>
