<svg width="296" height="223" viewBox="0 0 296 223" fill="none" xmlns="http://www.w3.org/2000/svg">
<path d="M27.6757 78.2691V78.1307C28.383 75.42 29.9207 72.9985 32.0734 71.2056C34.2261 69.4128 36.8858 68.3384 39.6797 68.1331C41.5253 68.0923 43.3545 68.4874 45.0187 69.2862C46.5452 69.4613 48.0395 69.8494 49.4582 70.4394C53.6787 71.8808 60.0555 74.0602 65.1177 71.9845C73.893 68.3753 76.4645 69.6783 77.9405 70.5431C77.6868 69.5976 77.1217 67.9832 76.5452 66.2881C74.5042 60.4072 71.1024 50.5595 70.0416 40.9193C68.4733 26.9319 76.3261 19.0906 82.0456 13.3711L83.7061 11.6991C85.8264 9.63602 88.5565 8.3134 91.4897 7.92837C93.9009 7.56483 96.3441 7.46046 98.7775 7.61703C99.7875 7.67622 100.8 7.67622 101.81 7.61703C104.116 7.35181 105.27 10.5114 106.146 13.0483C106.408 14.0364 106.837 14.9724 107.414 15.8158C107.476 15.7803 107.531 15.7333 107.576 15.6774C109.421 13.6479 111.819 13.4749 115.117 15.1354C117.855 16.5331 120.174 18.6296 121.84 21.2124L122.497 22.2387H124.308C122.804 20.4453 121.472 18.515 120.329 16.473C118.934 14.0169 116.766 9.55428 118.023 7.09812C118.957 5.25312 121.483 5.05709 125.369 6.4985C131.618 8.80475 138.168 6.42931 142.492 4.84953C145.225 3.85784 146.724 3.31586 147.405 4.20377C148.258 5.3569 147.255 7.45559 139.022 19.5058C137.315 21.9965 131.469 22.9651 127.121 23.2534C128.721 24.2655 130.579 24.7959 132.472 24.7816C134.365 24.7673 136.215 24.2088 137.799 23.1727C138.952 22.4116 141.57 18.8254 144.384 15.0316C148.166 9.93482 152.455 4.15765 155.223 2.04743C157.61 0.225491 161.727 -0.431789 166.247 0.283149C170.767 0.998088 174.492 2.86615 176.314 5.28771C178.908 8.74709 180.246 14.1207 180.845 17.211C181.722 14.7434 183.267 10.9265 184.939 9.24294C185.653 8.51623 186.579 8.0344 187.584 7.86659C188.588 7.69878 189.62 7.85363 190.532 8.30891C191.491 6.61872 192.96 5.27483 194.729 4.46899C197.577 3.1429 202.374 6.33706 210.273 14.8471C212.117 16.6956 214.232 18.2511 216.546 19.4596L218.161 20.4167C221.851 19.6672 223.615 20.9472 227.812 24.026C229.507 25.2599 231.606 26.805 234.443 28.6385C239.274 31.7981 243.875 37.8635 247.058 45.1513C250.056 52.07 251.082 58.5967 249.756 62.2522C249.039 63.8314 247.824 65.1318 246.297 65.9537C247.865 66.0344 248.73 66.2304 249.272 66.8531C249.998 67.6834 249.849 68.9633 249.549 71.4656C249.472 72.0883 249.391 72.8033 249.307 73.6105C249.263 74.0675 249.193 74.5218 249.099 74.9711C252.01 73.1925 255.321 72.1734 258.728 72.0076C261.034 71.9269 262.602 72.6072 263.409 74.0371C264.505 75.9628 263.963 78.8687 262.925 81.6708L270.893 83.9771C275.017 85.0506 278.872 86.9692 282.215 89.6113C285.557 92.2534 288.315 95.5613 290.312 99.3252C292.249 102.785 292.791 105.091 292.076 106.694C291.211 108.631 288.617 109.196 285.745 109.853H285.642C283.747 110.433 281.906 111.178 280.141 112.079C282.759 112.494 285.907 115.538 286.806 118.582C287.429 120.75 288.628 121.765 291.004 123.795L292.318 124.948C294.682 127 294.336 128.084 293.587 129.387C293.234 129.898 293.016 130.488 292.952 131.105C292.99 131.936 293.271 132.738 293.76 133.412C294.471 134.528 294.935 135.784 295.118 137.096C295.301 138.407 295.199 139.742 294.82 141.011C294.094 143.94 292.514 148.345 286.749 152.796C280.176 157.939 269.648 161.928 255.453 164.638C241.511 167.302 224.918 164.857 206.11 157.362C194.585 152.685 183.534 146.916 173.108 140.134C162.153 133.089 159.213 133.815 154.762 134.922C154.469 134.971 154.19 135.081 153.943 135.245C154.814 136.167 155.826 136.946 156.941 137.551C159.028 138.889 161.611 140.549 163.018 142.51C164.425 144.47 170.733 153.845 168.449 162.666C167.227 167.383 163.756 171.107 158.071 173.748C150.126 177.449 139.829 175.881 127.444 169.078C117.55 163.6 108.787 156.163 104.093 152.173L103.978 152.069C95.295 144.701 89.4717 141.806 77.8598 136.041L76.5106 135.372C73.5471 133.896 70.8141 132.685 68.4387 131.613C60.4937 128.073 55.6967 125.928 56.4462 120.646C56.8728 117.671 59.4904 115.238 63.9876 113.624C67.2467 112.472 70.6783 111.883 74.1352 111.883C74.48 111.919 74.8286 111.887 75.1614 111.79C74.9423 110.995 71.9442 108.469 69.2805 106.232C67.9083 105.079 66.3631 103.776 64.668 102.346C59.4213 97.7339 54.0823 90.6767 50.5422 85.9835C49.2972 84.2185 47.9496 82.5282 46.5062 80.9213C45.4454 79.9527 40.7406 80.806 37.0391 81.4863C32.5534 82.2935 29.7398 82.7432 28.5175 82.0283C27.6065 81.4863 27.2836 80.1256 27.6757 78.2691ZM43.7503 70.0819C42.4964 69.5525 41.144 69.297 39.7835 69.3324C37.2415 69.5181 34.8211 70.4939 32.861 72.1232C30.9009 73.7524 29.4991 75.9537 28.8519 78.419C28.5059 79.9065 28.7366 80.7829 29.1171 81.002C30.0511 81.5555 33.6604 80.8982 36.8315 80.3216C42.2627 79.33 45.9297 78.7765 47.3134 80.0564C48.8154 81.7054 50.2134 83.4461 51.4993 85.2686C54.9587 89.8811 60.2976 96.9497 65.4521 101.412C67.0896 102.831 68.6347 104.134 69.9954 105.275C75 109.473 76.6951 111.041 76.2454 112.194C75.9456 112.978 74.9193 113.047 74.066 113.024C69.5572 112.897 58.418 114.939 57.5763 120.773C56.9536 125.167 61.1855 127.058 68.8769 130.483C71.2985 131.555 74.0429 132.789 77.041 134.265L78.3787 134.934C90.0714 140.699 95.9408 143.651 104.739 151.077L104.843 151.17C109.455 155.136 118.196 162.516 128.09 167.948C140.129 174.555 150.069 176.112 157.656 172.56C162.96 170.093 166.224 166.622 167.354 162.263C167.354 162.09 167.435 161.905 167.469 161.732C169.245 153.58 163.329 144.804 162.107 143.098C160.885 141.391 158.348 139.731 156.342 138.485C154.035 136.998 152.617 136.098 152.801 135.026C152.928 134.242 153.839 133.873 154.508 133.758C159.547 132.512 162.926 132.155 173.777 139.12C191.65 150.651 226.002 169.101 255.268 163.462C269.279 160.787 279.634 156.878 286.057 151.85C291.442 147.618 292.975 143.467 293.656 140.711C294.003 139.588 294.099 138.402 293.935 137.238C293.772 136.074 293.353 134.96 292.71 133.977C292.109 133.121 291.776 132.105 291.753 131.059C291.819 130.236 292.093 129.442 292.549 128.753C293.068 127.842 293.333 127.381 291.523 125.801L290.22 124.648C287.74 122.538 286.38 121.373 285.607 118.882C284.834 116.391 282.032 113.543 279.841 113.22C279.53 113.22 278.907 113.093 278.019 113.001C270.732 116.38 260.169 121.004 247.45 121.212C240.785 121.315 236.161 120.058 234.766 117.625C234.474 117.148 234.32 116.599 234.32 116.04C234.32 115.48 234.474 114.932 234.766 114.454C236.334 111.721 241.212 109.98 247.185 110.015C259.523 110.107 272.496 111.168 277.766 111.779L278.711 111.341C280.8 110.259 282.98 109.364 285.227 108.665H285.342C288.075 108.054 290.231 107.512 290.854 106.175C291.384 104.964 290.854 102.9 289.136 99.8787C287.217 96.2814 284.575 93.1196 281.376 90.5915C278.177 88.0635 274.491 86.2238 270.547 85.1878L262.475 82.8816C261.535 85.0507 260.428 87.1441 259.166 89.1431C256.133 93.9401 249.941 96.5346 244.417 98.8293C242.284 99.7288 240.255 100.571 238.479 101.505C237.153 102.196 235.607 103.038 233.958 103.926C227.293 107.558 218.968 112.079 213.606 113.301C207.229 114.754 186.876 116.507 179.946 113.762C176.406 112.355 171.102 113.682 167.262 114.662C164.044 115.457 162.453 115.815 161.646 115.227C161.517 115.128 161.41 115.003 161.332 114.86C161.255 114.717 161.208 114.559 161.196 114.397C161.092 112.725 163.941 107.293 166.962 102.231C166.616 102.455 166.219 102.586 165.809 102.612C165.579 103.787 164.967 104.854 164.067 105.644C163.652 106.041 163.139 106.319 162.58 106.451C162.301 107.137 161.95 107.79 161.531 108.4C161.131 109.01 160.623 109.542 160.032 109.969C160.262 113.163 159.536 117.222 158.336 118.744C158.148 119.058 157.858 119.3 157.514 119.427C157.171 119.555 156.794 119.562 156.445 119.447C156.076 119.309 155.661 119.136 155.292 118.94C154.678 119.446 153.928 119.759 153.136 119.839C149.838 120.162 149.25 115.019 148.719 110.487C148.558 109.035 148.396 107.662 148.166 106.532C147.278 102.196 139.529 90.8612 121.217 83.5389C113.941 80.6215 107.691 80.437 103.159 82.9854C101.151 84.082 99.5103 85.7466 98.4431 87.7709L98.051 88.6357L97.4514 87.9092C97.3707 87.8054 89.2988 78.1307 77.9751 75.098C75.934 74.556 73.3626 74.1985 72.5554 75.5938C71.2177 77.9808 75.1384 84.7151 79.2666 88.6933C80.4773 89.8465 81.7919 91.1956 83.1872 92.5909C88.2033 97.6531 94.4417 103.949 100.599 107.42C107.334 111.225 114.033 112.748 119.418 113.981L121.99 114.581C127.087 115.803 128.782 116.449 135.931 119.194L139.921 120.704C142.624 121.756 145.414 122.57 148.258 123.137C149.872 122.613 151.512 122.171 153.17 121.811C155.765 121.212 158.21 120.658 159.224 119.574C161.45 117.268 164.264 117.671 168.911 118.421C170.56 118.686 172.428 118.986 174.676 119.228C178.531 119.593 182.419 119.372 186.208 118.571C190.635 117.782 195.113 117.312 199.607 117.164C206.168 116.945 215.924 118.317 221.159 119.078C224.468 119.597 227.743 120.174 230.384 120.704C234.443 121.534 234.547 121.73 234.708 121.996L234.881 122.319L234.685 122.63C234.454 122.999 234.062 122.987 232.944 122.884C227.074 122.342 222.946 124.832 217.227 128.292C216.074 128.984 214.92 129.699 213.629 130.437C208.613 133.331 204.254 133.169 199.192 132.985C196.037 132.804 192.872 132.854 189.725 133.135C180.107 134.15 169.153 131.382 167.919 131.059C164.838 131.42 161.738 131.593 158.636 131.578C151.579 131.486 144.799 135.603 141.12 137.817L139.69 138.67C138.606 139.281 138.03 139.027 137.742 138.67C136.335 137.09 140.14 130.264 142.492 126.966C143.482 125.64 144.797 124.592 146.309 123.921C144 123.367 141.731 122.658 139.517 121.8L135.528 120.289C128.436 117.602 126.752 116.956 121.69 115.757L119.13 115.158C113.664 113.912 106.872 112.355 99.9882 108.481C93.6922 104.929 87.3846 98.5641 82.3223 93.4903C80.9386 92.0951 79.624 90.769 78.4133 89.6043C74.7348 86.0642 70.3414 79.5029 71.1832 75.9167C71.2505 75.6203 71.3551 75.3335 71.4945 75.0634C72.417 73.4144 74.6887 73.057 78.2403 74.014C88.3301 76.7124 95.7101 84.2653 97.7627 86.5601C98.9379 84.6382 100.59 83.0531 102.56 81.9591C105.95 80.0218 112.027 78.4997 121.702 82.3973C140.463 89.9041 148.443 101.712 149.377 106.255C149.619 107.409 149.78 108.838 149.953 110.314C150.414 114.304 150.933 118.836 153.078 118.617C153.484 118.591 153.878 118.473 154.231 118.271C152.825 117.429 151.602 116.311 151.671 115.192C151.671 114.362 152.421 113.797 153.735 113.509C154.193 113.353 154.686 113.334 155.155 113.452C155.623 113.571 156.048 113.823 156.376 114.177C156.689 114.613 156.877 115.125 156.922 115.659C156.967 116.193 156.866 116.729 156.63 117.21C156.519 117.481 156.38 117.74 156.215 117.983C156.468 118.098 156.734 118.202 156.999 118.294C157.068 118.294 157.253 118.386 157.575 117.971C158.544 116.737 159.178 113.266 159.051 110.464C158.465 110.642 157.839 110.642 157.253 110.464C156.657 110.28 156.133 109.914 155.755 109.418C155.376 108.922 155.162 108.32 155.142 107.697C155.172 107.175 155.384 106.681 155.743 106.301C156.102 105.921 156.583 105.68 157.103 105.621C157.522 105.511 157.967 105.545 158.365 105.719C158.762 105.892 159.09 106.195 159.294 106.578C159.646 107.201 159.888 107.88 160.008 108.585C160.269 108.327 160.504 108.045 160.712 107.743C161.003 107.313 161.261 106.862 161.484 106.394C161.075 106.253 160.701 106.025 160.389 105.725C159.397 104.814 158.752 103.142 159.397 102.266C159.748 101.944 160.207 101.765 160.683 101.765C161.159 101.765 161.618 101.944 161.969 102.266C162.399 102.582 162.734 103.011 162.938 103.505C163.141 103.999 163.205 104.54 163.122 105.068C163.245 104.99 163.361 104.902 163.468 104.803C164.147 104.192 164.622 103.386 164.829 102.496H164.702C164.215 102.327 163.792 102.016 163.485 101.602C163.179 101.189 163.004 100.693 162.984 100.178C162.983 99.9265 163.06 99.6805 163.204 99.4741C163.349 99.2677 163.554 99.1109 163.791 99.0254C164.113 98.8963 164.473 98.8935 164.798 99.0174C165.123 99.1413 165.389 99.3829 165.543 99.6942C165.828 100.193 165.979 100.757 165.982 101.332C166.202 101.275 166.404 101.164 166.57 101.009C167.25 100.375 167.642 98.2528 167.515 95.8312V95.6698C166.345 95.5658 165.212 95.2077 164.194 94.6204C163.839 94.4653 163.535 94.2109 163.321 93.8877C163.106 93.5646 162.989 93.1864 162.984 92.7985C163.021 92.2707 163.198 91.7622 163.496 91.3247C163.793 90.8873 164.201 90.5364 164.679 90.3077C165.032 90.1016 165.437 90.0008 165.845 90.0172C166.254 90.0335 166.649 90.1663 166.985 90.4C167.896 91.0688 168.311 92.7985 168.519 94.1707C168.759 93.8702 168.903 93.5047 168.934 93.1214C169.144 91.4357 169.639 89.798 170.398 88.2782C170.271 88.1168 170.144 87.9438 170.018 87.7478C169.891 87.5518 169.199 86.4793 169.66 85.6837C170.26 84.6574 172.139 84.7727 174.722 84.9457C177.029 85.0956 179.554 85.2686 181.284 84.6228C183.717 83.7118 187.395 78.9264 189.356 74.1755C190.832 70.5201 191.12 67.3951 190.163 65.3887C188.502 61.9293 186.334 59.8537 183.705 59.3347C182.471 60.4879 175.852 71.039 175.633 75.9628C175.576 77.6118 175.633 78.961 175.633 80.0334C175.749 82.4665 175.818 84.0693 173.765 84.1846C172.739 84.2164 171.713 84.1234 170.71 83.9079C170.467 84.2752 170.205 84.6293 169.925 84.9688C167.977 87.3672 166.328 87.9323 165.186 87.9207C165.094 88.1514 164.978 88.4051 164.84 88.6703C163.88 90.4065 162.411 91.807 160.631 92.6832C160.228 92.9077 159.843 93.1621 159.478 93.4442H159.974C160.715 93.5892 161.395 93.9539 161.925 94.4907C162.456 95.0275 162.813 95.7115 162.949 96.4539C163.006 96.7839 162.942 97.1235 162.768 97.4098C162.595 97.696 162.323 97.9095 162.003 98.0106C161.606 98.1588 161.178 98.2068 160.758 98.1505C160.338 98.0942 159.938 97.9352 159.593 97.6877C158.994 97.2051 158.546 96.5608 158.302 95.8312C158.19 96.0534 158.097 96.2849 158.025 96.5231C157.873 96.9557 157.754 97.3989 157.668 97.8492L158.14 97.9414C159.732 98.3335 160.677 99.3367 160.447 100.386C160.374 100.701 160.217 100.991 159.991 101.223C159.765 101.455 159.48 101.62 159.167 101.701C158.806 101.802 158.425 101.802 158.065 101.7C157.705 101.598 157.38 101.399 157.126 101.124C156.632 100.547 156.369 99.8076 156.388 99.0484C156.2 99.0761 156.024 99.1571 155.881 99.2818C155.738 99.4065 155.634 99.5696 155.58 99.7518C155.362 100.738 155.23 101.741 155.188 102.75C155.004 105.056 154.854 106.936 153.562 106.959C153.205 106.959 152.675 106.786 152.179 105.875C151.57 104.529 151.293 103.057 151.371 101.582C151.449 100.108 151.881 98.673 152.628 97.3994L153.124 96.673C155.188 93.6403 157.322 90.5153 157.921 86.906C158.171 84.7239 157.82 82.515 156.907 80.5177C156.549 79.6734 156.305 78.7855 156.18 77.877C156.157 77.3288 156.219 76.7802 156.365 76.2511C156.491 75.7437 156.503 75.6746 155.442 75.098C154.879 74.7987 154.369 74.4092 153.932 73.9449C153.401 73.3798 153.009 72.9647 149.988 72.5034C147.57 72.2122 145.182 71.7145 142.85 71.0159C139.46 76.966 133.89 83.8502 131.319 84.5306C131.081 84.6188 130.823 84.6364 130.575 84.5811C130.327 84.5259 130.101 84.4002 129.923 84.2192C129.047 83.3083 129.993 81.7746 130.292 81.2672C132.227 78.5476 134.497 76.0834 137.05 73.9333C138.341 72.7802 139.61 71.7309 140.624 70.9813C141.075 70.6376 141.549 70.3255 142.043 70.0473C142.991 68.4419 143.738 66.7263 144.268 64.9389C144.879 62.5058 144.626 61.4796 144.268 61.0875C143.911 60.6954 143.011 60.5686 142.112 60.5686C141.649 60.5854 141.185 60.5545 140.728 60.4763C140.002 60.299 139.289 60.0716 138.595 59.796C136.635 59.0811 134.202 58.1932 132.149 58.6429C129.232 59.3578 124.331 58.4814 121.09 57.8933L120.087 57.7204C117.366 57.2476 109.317 58.147 106.895 58.7812C103.967 59.5423 99.6423 61.3412 97.0824 63.9011C93.9574 67.0376 92.4699 70.3125 93.1041 72.4573C93.8297 74.1863 94.7505 75.8267 95.8485 77.3466C96.7736 78.6334 97.5474 80.0225 98.1548 81.4863C98.2239 81.6472 98.26 81.8204 98.2607 81.9955C98.2614 82.1706 98.2269 82.3441 98.159 82.5055C98.0912 82.667 97.9916 82.8131 97.866 82.9352C97.7405 83.0572 97.5916 83.1527 97.4283 83.216C95.9754 83.7464 92.8158 81.9591 90.5096 76.2972C89.9616 74.9848 89.4805 73.6455 89.0681 72.2844C89.1719 72.9186 89.2872 73.5643 89.4025 74.2331C89.5179 74.902 89.6332 75.467 89.6678 75.7437C89.7308 76.0414 89.7084 76.3507 89.6032 76.6362C89.498 76.9216 89.3144 77.1716 89.0733 77.3572C88.8323 77.5428 88.5437 77.6565 88.2408 77.6852C87.938 77.714 87.6332 77.6565 87.3615 77.5196C86.3814 77.0814 84.0059 75.1441 83.3371 66.7839C82.6337 58.0317 85.4934 53.8343 86.981 53.1886C87.0558 53.1464 87.138 53.119 87.2231 53.1079C87.2664 53.0304 87.3165 52.9571 87.373 52.8888C87.5341 52.6686 87.7415 52.4863 87.9805 52.3548C88.2196 52.2233 88.4846 52.1458 88.7568 52.1277C90.3233 51.9371 91.9124 52.1556 93.3693 52.7619C94.0691 53.0648 94.821 53.2293 95.5833 53.2462C95.849 53.2936 96.1225 53.2694 96.3758 53.1762C96.6291 53.0829 96.8531 52.9241 97.0247 52.7158C97.7281 52.0009 98.5468 51.4243 101.372 51.6434C103.683 51.7872 105.968 52.2132 108.175 52.9118C108.483 52.1262 108.829 51.3565 109.213 50.6056C111.304 46.5408 113.649 42.6123 116.236 38.8437C117.043 37.6098 117.746 36.5374 118.334 35.6034C120.548 32.144 126.994 27.8083 129.197 27.5315C130.174 27.4271 131.16 27.4271 132.137 27.5315C132.786 27.6457 133.449 27.6457 134.098 27.5315C135.941 27.0132 137.897 27.0664 139.709 27.6841C141.521 28.3018 143.103 29.4549 144.245 30.9909L144.799 31.6712C146.304 33.2838 147.609 35.0726 148.685 36.9987C150.657 38.6592 153.09 42.0033 153.297 44.7708C153.401 46.0507 153.147 46.8694 152.548 47.2961C151.568 47.9765 150.115 47.2961 148.569 46.5927C148.166 46.3967 147.739 46.2006 147.347 46.0392C146.74 45.8289 146.094 45.758 145.456 45.8316C146.116 46.3667 146.744 46.9404 147.336 47.5498C150.541 50.8593 151.072 52.5544 151.498 53.9151C151.674 54.6741 152.039 55.3763 152.559 55.9561C153.121 56.5189 153.762 56.9967 154.462 57.3744C155.973 58.2623 157.518 59.1848 156.872 62.2867C156.418 63.8282 155.455 65.1699 154.139 66.0921C153.366 66.7609 152.698 67.3259 152.675 67.9255C152.652 68.5252 152.997 68.9518 153.678 69.6437C154.251 70.2283 154.885 70.7501 155.569 71.2004C155.628 70.82 155.801 70.4663 156.065 70.1857C156.284 69.9781 157.091 69.4131 158.244 70.6008C159.167 71.5579 159.04 72.3535 158.613 72.7802C158.379 72.9641 158.102 73.0876 157.809 73.1399C157.515 73.1922 157.213 73.1716 156.93 73.08C157.093 73.5424 157.343 73.9691 157.668 74.3369C158.083 74.8097 158.44 75.1787 158.752 75.49C159.67 76.3279 160.37 77.3767 160.793 78.5458C160.929 78.4425 161.076 78.3536 161.231 78.2806C161.402 78.2028 161.587 78.1615 161.774 78.1593C161.962 78.1571 162.148 78.1941 162.321 78.2679C162.493 78.3417 162.648 78.4507 162.777 78.5879C162.905 78.7251 163.003 78.8875 163.064 79.0647C163.259 79.3866 163.361 79.7554 163.361 80.1314C163.361 80.5073 163.259 80.8762 163.064 81.198C162.915 81.4017 162.712 81.5593 162.477 81.6531C162.243 81.7469 161.987 81.773 161.738 81.7285C161.305 81.6373 160.919 81.3913 160.654 81.0366C160.556 81.3833 160.556 81.7507 160.654 82.0975C160.69 82.2348 160.764 82.3589 160.868 82.455C160.973 82.5511 161.103 82.6152 161.242 82.6394C162.188 82.8009 164.229 81.8438 166.904 78.6035C170.525 74.2101 172.174 71.4426 171.667 65.0312C171.376 61.9513 170.3 58.9975 168.542 56.4519C167.527 54.9622 166.749 53.3246 166.235 51.5973C165.601 49.0143 165.082 48.6222 164.413 48.1379C163.843 47.7595 163.36 47.2643 162.995 46.685C162.674 46.1791 162.389 45.6511 162.142 45.1052C161.365 43.3386 160.039 41.8703 158.36 40.9193C156.869 39.9864 155.284 39.2134 153.632 38.6131C151.879 37.9097 150.61 37.4599 150.172 36.3068C150.086 36.1243 150.069 35.9162 150.127 35.7225C150.184 35.5287 150.311 35.3631 150.484 35.2575C151.464 34.6924 154.854 35.9493 156.249 36.5144C157.402 36.9641 161.058 38.5439 162.222 40.1121C162.43 40.3774 162.568 40.3889 162.626 40.3889C163.283 40.3889 164.494 39.1204 165.659 37.8635C167.079 36.1435 168.788 34.6841 170.71 33.5508C175.137 31.3368 183.694 30.3797 186.369 32.3977C187.733 33.241 189.236 33.8345 190.808 34.1505C193.253 34.7433 195.615 35.6341 197.843 36.8027C203.055 39.6509 209.201 49.8676 210.908 54.3186C212.614 58.7697 212.107 69.7936 212.107 70.1972V70.4278L211.957 70.5893C211.818 70.7161 208.636 73.9679 195.652 80.7598L190.382 83.4927C180.961 88.3589 176.66 90.573 173.431 94.6896C169.43 99.798 162.292 112.067 162.372 114.212C162.868 114.454 165.232 113.866 166.985 113.428C171.009 112.413 176.521 111.041 180.419 112.575C186.876 115.146 206.941 113.543 213.387 112.067C218.61 110.914 226.832 106.405 233.44 102.842C235.077 101.943 236.634 101.101 237.971 100.398C239.793 99.452 241.834 98.5987 244.002 97.6877C249.595 95.3815 255.384 92.9484 258.209 88.4627C261.034 83.9771 263.974 77.4504 262.418 74.6829C261.841 73.6681 260.619 73.1838 258.797 73.2414C255.171 73.4356 251.669 74.6332 248.684 76.7008C247.3 80.8406 244.279 83.2967 242.688 83.7003C241.892 83.8963 241.535 83.5735 241.396 83.3659C240.958 82.7202 241.558 81.9014 241.754 81.6247C243.404 79.4167 245.411 77.4993 247.692 75.9513C247.919 75.1671 248.078 74.3645 248.165 73.5528C248.246 72.7341 248.326 72.0191 248.407 71.3849C248.638 69.3208 248.788 68.0754 248.407 67.6373C248.027 67.1991 246.597 67.1414 244.244 67.0953C240.179 68.8418 235.921 70.0999 231.56 70.8429C226.763 71.7193 219.222 72.5611 218.115 71.2581C217.963 71.0943 217.867 70.8869 217.84 70.6654C217.813 70.4439 217.857 70.2195 217.965 70.0242C219.118 67.718 229.934 65.2272 239.528 65.7461C241.315 65.8384 242.791 65.873 244.002 65.896C246.585 64.6391 248.211 63.2554 248.719 61.8601C249.929 58.5276 248.88 52.1623 246.055 45.6356C242.953 38.5093 238.513 32.6745 233.878 29.6417C231.018 27.7737 228.896 26.1824 227.19 25.0292C223.673 22.4578 222.116 21.3162 219.717 21.4545C221.552 22.6439 222.898 24.4526 223.511 26.5514C224.872 31.6251 217.561 43.387 214.286 47.4345C212.96 49.0719 212.522 49.1872 212.187 49.1642C211.496 49.1642 211.346 48.2417 211.253 47.25C211.024 42.3498 211.295 37.4391 212.061 32.5937C213.087 25.9748 214.644 22.0542 216.673 20.9241L216.004 20.532C213.592 19.2675 211.384 17.6464 209.455 15.7235C202.259 7.98603 197.485 4.58431 195.271 5.62212C193.571 6.31804 192.179 7.6036 191.35 9.24294L191.097 9.92329L190.486 9.53122C189.765 9.06431 188.907 8.8557 188.053 8.93948C187.198 9.02326 186.397 9.39449 185.781 9.99247C183.475 12.2987 181.249 19.6787 181.226 19.7595L180.43 22.4347L180.084 19.6557C180.084 19.5749 178.931 10.6152 175.391 5.93346C173.777 3.77712 170.202 2.03589 166.074 1.32096C161.946 0.606018 158.002 1.24024 155.949 2.84308C153.309 4.86105 149.031 10.569 145.329 15.6082C142.204 19.8171 139.748 23.1381 138.48 24.003C136.689 25.1872 134.59 25.8186 132.443 25.8186C130.296 25.8186 128.197 25.1872 126.406 24.003C126.051 23.7568 125.719 23.4789 125.415 23.1727C123.812 23.2534 122.601 23.2534 122.221 23.2534H121.898L120.848 21.7659C119.304 19.3534 117.142 17.3984 114.587 16.104C111.035 14.3052 109.49 15.2392 108.441 16.3808C108.301 16.5737 108.111 16.7242 107.891 16.8158C107.671 16.9074 107.431 16.9364 107.195 16.8997C106.227 16.7037 105.731 15.2968 105.039 13.3481C104.289 11.2148 103.344 8.53953 101.937 8.73556C100.87 8.80616 99.7987 8.80616 98.7313 8.73556C96.3826 8.59135 94.0252 8.69183 91.6973 9.03537C89.002 9.43558 86.5073 10.693 84.5825 12.6216C84.0636 13.1636 83.4985 13.7747 82.9104 14.3167C77.3524 19.8632 69.7417 27.4739 71.2408 40.8386C72.2901 50.2942 75.6688 60.0612 77.6868 65.896C79.3358 70.6815 79.5433 71.3964 79.0821 71.8923C78.9928 71.9842 78.88 72.05 78.7561 72.0825C78.6321 72.115 78.5016 72.113 78.3787 72.0768C78.0719 71.9704 77.781 71.823 77.5138 71.6386C76.3607 70.9237 74.1236 69.5745 65.602 73.08C60.2285 75.2825 53.7479 73.1377 49.366 71.6386C54.8549 75.1787 61.1855 80.8636 67.7468 86.8138C72.7399 91.3225 77.9174 96.0388 82.7375 99.7172C96.6672 110.407 101.672 112.033 108.014 114.085L109.686 114.627C111.543 115.238 114.045 115.849 116.686 116.484C124.596 118.409 133.556 120.577 135.389 124.936C135.711 125.52 135.857 126.184 135.81 126.849C135.763 127.514 135.525 128.151 135.124 128.684C132.679 131.613 123.362 131.255 107.449 127.611C92.7005 124.244 82.8297 115.031 75.6227 108.308C72.5208 105.414 70.0646 103.119 68.0236 102.081C59.698 97.8722 48.3628 79.6528 45.111 74.187C43.831 72.0422 43.4159 70.8314 43.7503 70.0819ZM44.9034 70.5431C44.9034 70.5431 44.742 71.0851 46.218 73.5643C52.86 84.7035 62.258 97.78 68.6693 101.078C70.8487 102.231 73.351 104.537 76.5221 107.501C83.5447 114.143 93.3347 123.241 107.726 126.527C128.009 131.14 133.095 129.433 134.248 127.992C134.505 127.624 134.65 127.19 134.665 126.741C134.679 126.293 134.562 125.85 134.328 125.467C132.726 121.661 123.697 119.47 116.432 117.706C113.768 117.06 111.243 116.449 109.34 115.815L107.68 115.273C101.234 113.186 96.1483 111.537 82.0456 100.732C77.1563 96.9728 71.9673 92.2911 66.9396 87.7593C59.0869 80.6561 51.015 73.3683 44.9034 70.5431ZM86.635 55.3334C85.5742 56.8555 84.1097 60.3495 84.6286 66.7955C85.2744 74.9365 87.5229 76.3434 87.9611 76.5394C88.0466 76.5901 88.1442 76.6169 88.2437 76.6169C88.3431 76.6169 88.4407 76.5901 88.5262 76.5394C88.5953 76.4694 88.6454 76.3828 88.6717 76.2879C88.6979 76.1931 88.6994 76.093 88.6761 75.9974C88.6761 75.7437 88.5492 75.2364 88.4224 74.533C87.1078 67.6027 85.8855 59.5884 86.5774 55.3334H86.635ZM88.3071 54.2725C88.2496 54.4901 88.1644 54.6994 88.0534 54.8952C86.9003 57.0631 88.6415 68.5252 91.7665 75.9398C93.5999 80.3101 95.7793 81.9014 96.7826 82.1436C96.9289 82.1896 97.0859 82.1896 97.2323 82.1436C97.2486 82.0559 97.2486 81.966 97.2323 81.8784C96.6446 80.5221 95.9099 79.2344 95.0413 78.0385C93.8721 76.4371 92.9039 74.6983 92.1585 72.8609C91.3398 70.2549 92.9426 66.611 96.4251 63.1055C99.9075 59.6 105.65 57.9625 106.803 57.6742C107.23 57.5705 107.818 57.4436 108.51 57.3283C108.287 57.2506 108.091 57.1106 107.945 56.9247C107.645 56.5326 107.403 55.7716 107.945 54.1111C105.839 53.4344 103.651 53.0465 101.441 52.958C98.9274 52.7504 98.4661 53.2232 97.9818 53.6729C97.7015 54.001 97.3439 54.254 96.9412 54.4091C96.5385 54.5641 96.1035 54.6163 95.6756 54.5608C94.7777 54.5396 93.8925 54.3438 93.0695 53.9842C91.7812 53.4587 90.3798 53.2721 88.999 53.4423C88.8944 53.4456 88.7924 53.4747 88.7019 53.527C88.6113 53.5793 88.5351 53.6532 88.48 53.7421L88.3878 53.8689C88.3692 54.0114 88.3221 54.1486 88.2494 54.2725H88.3071ZM146.505 4.87259C145.271 5.03707 144.067 5.37885 142.931 5.88734C138.71 7.421 131.653 9.98094 125 7.53631C122.693 6.70606 119.868 6.02572 119.107 7.53631C117.654 10.4076 122.797 18.7793 125.899 22.0426C130.431 21.7544 136.612 20.8895 138.088 18.7332C141.27 14.0169 146.667 6.1295 146.448 4.87259H146.505ZM108.879 54.803C108.797 55.0967 108.747 55.3982 108.729 55.7024C108.802 55.4085 108.833 55.1056 108.821 54.803H108.879ZM146.678 35.9032C146.044 34.9923 145.156 33.9083 143.957 32.4438L143.392 31.7635C142.387 30.4176 141.001 29.4045 139.414 28.8556C137.827 28.3066 136.111 28.247 134.49 28.6846C133.688 28.8723 132.858 28.9036 132.045 28.7769C131.148 28.6842 130.244 28.6842 129.347 28.7769C127.583 28.996 121.413 33.0319 119.338 36.3875C118.738 37.3562 118 38.4747 117.216 39.6624C114.67 43.3932 112.359 47.2791 110.297 51.2975C109.914 52.0474 109.572 52.8172 109.271 53.6037C109.464 53.7063 109.631 53.8507 109.761 54.0262C109.89 54.2018 109.979 54.4041 110.02 54.6185C110.025 55.4847 109.832 56.3405 109.455 57.1207V57.2476C112.915 56.7287 118.231 56.279 120.468 56.671L121.471 56.844C124.423 57.3744 129.37 58.2739 132.045 57.6051C134.444 57.017 137.177 58.0087 139.171 58.7582C139.812 59.0077 140.467 59.2194 141.132 59.3924C141.514 59.4437 141.9 59.463 142.285 59.4501C142.839 59.363 143.406 59.4062 143.94 59.5764C144.475 59.7465 144.962 60.0389 145.364 60.4302C146.09 61.3642 146.136 62.9094 145.537 65.2964C145.054 66.9414 144.389 68.5272 143.553 70.0242C145.762 70.6614 148.018 71.124 150.299 71.408C153.551 71.9038 154.174 72.4112 154.912 73.1953C155.243 73.5701 155.632 73.8893 156.065 74.1409C155.837 73.6784 155.677 73.185 155.592 72.6764C154.583 72.1199 153.662 71.4165 152.859 70.5893C152.442 70.2696 152.099 69.8624 151.856 69.3962C151.613 68.93 151.475 68.4162 151.452 67.8909C151.452 66.7378 152.386 66.0113 153.332 65.2042C154.433 64.4397 155.246 63.3268 155.638 62.0446C156.111 59.7383 155.235 59.254 153.793 58.3892C152.986 57.9593 152.251 57.4069 151.614 56.7517C150.981 56.044 150.53 55.1932 150.299 54.2725C149.907 53.0271 149.423 51.482 146.413 48.38C145.582 47.5212 144.667 46.7486 143.68 46.0738C142.836 46.2501 141.965 46.2573 141.118 46.095C140.271 45.9327 139.464 45.6041 138.745 45.1282C138.249 44.7708 137.592 44.2288 137.695 43.5946C137.72 43.4308 137.792 43.2778 137.902 43.1547C138.013 43.0317 138.158 42.944 138.318 42.9027C139.287 42.5798 141.535 43.2371 143.968 44.84H144.072C145.277 44.5594 146.536 44.6072 147.716 44.9783C148.143 45.1513 148.569 45.3473 148.996 45.5434C149.999 46.0161 151.383 46.6965 151.81 46.3621C151.914 46.2814 152.144 45.9931 152.052 44.8976C151.662 42.7527 150.647 40.7709 149.134 39.2012C149.152 39.4584 149.152 39.7165 149.134 39.9738C149.134 41.0346 148.581 41.2537 148.27 41.2999C147.117 41.4382 145.756 39.132 145.41 37.8405C145.064 36.549 145.583 36.1454 145.929 35.9839C146.147 35.8911 146.387 35.8631 146.621 35.9032H146.678ZM140.613 72.5034C137.292 75.1326 131.595 80.4139 130.846 82.8816C130.765 83.1583 130.765 83.3198 130.846 83.3659C130.928 83.3949 131.018 83.3949 131.1 83.3659C132.898 82.8816 137.338 77.6925 140.613 72.5034ZM141.939 44.9553C141.108 44.5151 140.219 44.193 139.298 43.9982L139.471 44.125C140.187 44.6466 141.043 44.9401 141.927 44.9668L141.939 44.9553ZM147.705 37.7136C147.376 37.416 146.981 37.2023 146.551 37.0909C146.596 37.4947 146.717 37.8861 146.909 38.2441C147.199 38.8507 147.589 39.4042 148.062 39.8815C148.079 39.1413 147.938 38.4061 147.647 37.7252L147.705 37.7136ZM210.977 70.0012C211.034 68.3753 211.334 58.9196 209.824 55.0105C208.105 50.5364 202.051 40.7118 197.289 38.1057C195.142 36.9821 192.865 36.1262 190.509 35.5573C188.754 35.1983 187.083 34.5096 185.585 33.5278C183.509 31.9365 175.414 32.6283 171.148 34.7616C169.358 35.8343 167.766 37.2074 166.443 38.8206C164.898 40.4811 163.687 41.7842 162.488 41.7265C162.229 41.7047 161.979 41.6249 161.755 41.4932C161.532 41.3614 161.341 41.1811 161.196 40.9654C159.87 39.1666 153.747 36.8027 151.591 36.4683C152.342 36.9375 153.143 37.3242 153.978 37.6214C155.709 38.2582 157.367 39.0777 158.925 40.066C160.772 41.123 162.237 42.7376 163.11 44.6785C163.343 45.1778 163.605 45.6629 163.895 46.1314C164.188 46.597 164.582 46.991 165.048 47.2846C165.982 47.9419 166.639 48.5876 167.354 51.3897C167.833 53.001 168.556 54.5293 169.499 55.9215C171.353 58.6248 172.488 61.756 172.797 65.0197C173.362 72.0999 171.275 75.1902 167.769 79.4453C165.221 82.5241 162.684 84.1846 161 83.8848C160.655 83.8268 160.332 83.6744 160.067 83.4444C159.803 83.2145 159.607 82.916 159.501 82.5818C159.36 82.0955 159.322 81.5854 159.387 81.0834C159.452 80.5814 159.621 80.0983 159.882 79.6644C159.541 78.3933 158.841 77.2479 157.864 76.3664L157.633 76.1243C157.616 76.2796 157.589 76.4337 157.552 76.5855C157.432 76.997 157.381 77.4258 157.402 77.854C157.522 78.6476 157.743 79.4226 158.06 80.1602C159.05 82.3515 159.421 84.7724 159.132 87.1597C158.475 91.0227 156.272 94.2629 154.139 97.3994L153.655 98.1259C153.095 99.077 152.741 100.134 152.613 101.231C152.486 102.327 152.59 103.437 152.917 104.491C153.015 104.977 153.242 105.426 153.574 105.794C153.882 104.796 154.045 103.76 154.058 102.715C154.11 101.629 154.253 100.549 154.485 99.4866C154.626 99.0494 154.895 98.6643 155.257 98.3808C155.618 98.0972 156.056 97.9282 156.514 97.8953C156.612 97.3161 156.754 96.7454 156.941 96.1887C157.154 95.4762 157.52 94.8189 158.014 94.2629V94.0323C158.014 92.8792 158.982 92.3603 160.101 91.7261C161.68 90.9593 162.988 89.7282 163.848 88.1975C163.933 88.0496 164.006 87.8954 164.067 87.7363C163.644 87.5857 163.272 87.3205 162.991 86.9702C162.71 86.62 162.531 86.1985 162.476 85.7529C162.489 85.5183 162.573 85.2931 162.717 85.1077C162.862 84.9222 163.059 84.7852 163.283 84.7151C163.603 84.5979 163.949 84.5781 164.28 84.6581C164.61 84.7382 164.91 84.9145 165.14 85.1648C165.328 85.3868 165.464 85.648 165.538 85.9294C165.611 86.2107 165.621 86.505 165.567 86.7907C166.385 86.6869 167.573 86.1219 169.026 84.2884C169.21 84.0578 169.383 83.8387 169.522 83.6311C168.849 83.4227 168.252 83.0218 167.804 82.478C167.63 82.2486 167.52 81.9779 167.484 81.6927C167.447 81.4074 167.486 81.1177 167.596 80.8521C167.756 80.4632 168.025 80.1288 168.371 79.8894C168.717 79.65 169.124 79.5158 169.545 79.5029C169.922 79.4685 170.3 79.5465 170.633 79.7271C170.965 79.9077 171.237 80.1828 171.413 80.5177C171.566 80.8865 171.636 81.2849 171.616 81.6838C171.596 82.0828 171.487 82.4723 171.298 82.8239C172.094 82.985 172.907 83.047 173.719 83.0084C174.492 83.0084 174.596 82.7893 174.469 80.1026C174.469 78.9494 174.365 77.6233 174.469 75.9282C174.665 70.5893 181.71 59.3809 183.059 58.3315C183.148 58.2525 183.253 58.1947 183.367 58.1627C183.481 58.1308 183.6 58.1254 183.717 58.147H183.867C186.899 58.7236 189.367 60.9837 191.201 64.8467C192.296 67.1529 192.019 70.6123 190.428 74.6021C188.341 79.7912 184.512 84.6689 181.71 85.7067C179.75 86.4447 177.098 86.2603 174.676 86.1104C173.269 86.0181 170.929 85.8567 170.698 86.2602C170.698 86.2602 170.698 86.537 171.021 87.079L171.113 87.2173C171.299 86.9846 171.516 86.7789 171.759 86.6062C172.01 86.4214 172.295 86.2894 172.598 86.218C172.902 86.1467 173.216 86.1375 173.523 86.1911C173.868 86.2381 174.186 86.4026 174.423 86.6568C174.66 86.911 174.803 87.2393 174.826 87.5863C174.833 88.0222 174.7 88.4487 174.447 88.8035C174.194 89.1583 173.834 89.4228 173.419 89.5582C173.057 89.6645 172.674 89.6802 172.304 89.6038C171.934 89.5274 171.588 89.3612 171.298 89.12C170.713 90.4362 170.324 91.8309 170.144 93.2597C170.122 93.6914 169.993 94.1108 169.77 94.4809C169.547 94.8509 169.236 95.1603 168.864 95.3815L168.703 95.4507C168.703 95.566 168.703 95.6698 168.703 95.7505C168.791 97.1502 168.683 98.5553 168.38 99.9248C169.914 97.5148 171.39 95.3123 172.497 93.9401C175.887 89.6274 180.569 87.2289 189.794 82.4088L195.064 79.6759C206.341 73.8757 210.146 70.6584 210.954 69.955L210.977 70.0012ZM148.42 124.348C146.489 124.923 144.779 126.074 143.519 127.646C140.417 131.993 138.399 136.871 138.676 137.805C138.852 137.765 139.019 137.695 139.171 137.597L140.578 136.756C144.337 134.449 151.325 130.252 158.717 130.344C166.789 130.448 175.899 128.799 186.173 126.804C190.341 126.081 194.57 125.768 198.8 125.87C202.962 125.87 206.872 125.87 210.688 124.602C211.692 124.267 211.899 124.002 211.934 123.944C211.784 123.518 209.628 122.33 204.035 121.465C199.82 120.703 195.509 120.629 191.27 121.246C183.138 123.037 174.866 124.117 166.547 124.475L164.31 124.613C157.91 124.959 153.516 125.236 148.362 124.302L148.42 124.348ZM157.76 72.0307C157.686 71.8334 157.568 71.6559 157.414 71.5118C157.103 71.1889 156.918 71.1312 156.872 71.1312C156.784 71.27 156.733 71.4286 156.722 71.5925C156.716 71.6808 156.716 71.7694 156.722 71.8577C157.032 71.984 157.37 72.0277 157.702 71.9845L157.76 72.0307ZM155.604 116.322C155.673 116.096 155.69 115.858 155.654 115.624C155.618 115.39 155.53 115.168 155.396 114.973C155.195 114.799 154.951 114.682 154.69 114.633C154.428 114.585 154.159 114.606 153.908 114.696C153.078 114.881 152.755 115.135 152.755 115.307C152.755 115.792 153.678 116.703 155.062 117.475C155.224 117.269 155.356 117.04 155.454 116.795C155.513 116.64 155.563 116.483 155.604 116.322ZM229.554 121.673C222.358 120.231 208.002 118.017 199.676 118.294C195.232 118.436 190.804 118.899 186.427 119.678C182.52 120.499 178.512 120.725 174.538 120.347C172.301 120.093 170.41 119.805 168.772 119.539C164.16 118.813 161.923 118.456 160.124 120.358C158.855 121.684 156.365 122.261 153.482 122.93L151.049 123.518C155.425 123.878 159.824 123.844 164.194 123.414L166.443 123.276C174.703 122.921 182.917 121.852 190.993 120.081C194.671 119.297 200.218 119.666 204.162 120.277C207.264 120.762 212.556 121.834 213.041 123.645C213.271 124.498 212.591 125.201 211.023 125.709C207.045 127.023 203.02 127.035 198.765 127.046C194.613 126.939 190.461 127.245 186.369 127.957C181.076 128.984 176.083 129.918 171.378 130.575C177.372 131.892 183.523 132.338 189.644 131.901C192.849 131.611 196.071 131.557 199.284 131.74C204.358 131.936 208.371 132.085 213.122 129.353C214.39 128.626 215.566 127.911 216.708 127.219C221.205 124.394 224.999 122.088 229.554 121.638V121.673ZM162.096 80.4139C162.141 80.1593 162.092 79.8968 161.957 79.6759C161.83 79.3876 161.75 79.4222 161.646 79.4683C161.46 79.5599 161.298 79.6942 161.173 79.8604C161.415 80.4254 161.704 80.633 161.853 80.6561C161.887 80.6648 161.923 80.6615 161.954 80.6468C161.986 80.6321 162.011 80.6068 162.026 80.5753C162.072 80.5203 162.097 80.4508 162.096 80.3793V80.4139ZM159.328 100.178C159.397 99.8671 158.821 99.3598 157.887 99.1291L157.587 99.0715C157.575 99.5384 157.726 99.9948 158.014 100.363C158.124 100.48 158.263 100.565 158.417 100.609C158.571 100.654 158.735 100.656 158.89 100.617C158.997 100.592 159.094 100.537 159.171 100.46C159.249 100.383 159.303 100.285 159.328 100.178ZM158.867 109.254C158.801 108.524 158.581 107.816 158.221 107.178C157.887 106.659 157.575 106.659 157.31 106.717C156.826 106.844 156.261 107.109 156.238 107.697C156.269 108.062 156.409 108.41 156.639 108.695C156.869 108.981 157.179 109.191 157.529 109.3C157.967 109.44 158.44 109.423 158.867 109.254ZM161.796 96.7768C161.808 96.7236 161.808 96.6685 161.796 96.6153C161.691 96.142 161.455 95.7079 161.114 95.3631C160.773 95.0183 160.342 94.7768 159.87 94.6665C159.657 94.6349 159.439 94.6712 159.247 94.7703C159.353 95.5369 159.729 96.2405 160.308 96.7537C160.501 96.8933 160.725 96.9822 160.961 97.0125C161.197 97.0427 161.436 97.0132 161.657 96.9267C161.693 96.9181 161.725 96.8992 161.749 96.8726C161.774 96.8459 161.79 96.8126 161.796 96.7768ZM164.39 86.5485C164.39 86.1795 164.321 85.9489 164.183 85.8567C164.106 85.8041 164.017 85.7713 163.925 85.7613C163.832 85.7512 163.739 85.7642 163.652 85.799C163.798 86.131 164.061 86.3978 164.39 86.5485ZM161.784 105.218C161.892 104.88 161.906 104.519 161.825 104.174C161.743 103.829 161.57 103.512 161.323 103.257C161.19 103.112 161.02 103.006 160.831 102.951C160.641 102.896 160.441 102.894 160.251 102.946C160.249 103.323 160.335 103.694 160.501 104.032C160.667 104.37 160.909 104.666 161.208 104.895C161.374 105.043 161.571 105.153 161.784 105.218ZM167.388 94.5166C167.354 93.3888 166.976 92.2985 166.305 91.3917C166.132 91.2832 165.932 91.2256 165.728 91.2256C165.524 91.2256 165.324 91.2832 165.151 91.3917C164.871 91.5263 164.628 91.7285 164.445 91.98C164.262 92.2316 164.144 92.5247 164.102 92.8331C164.102 92.9484 164.102 93.3058 164.667 93.5941C165.506 94.0753 166.43 94.3887 167.388 94.5166ZM164.829 101.066C164.796 100.827 164.718 100.596 164.598 100.386C164.448 100.132 164.356 100.178 164.287 100.202C164.264 100.197 164.24 100.197 164.217 100.202C164.125 100.34 164.31 100.744 164.829 101.066ZM170.49 81.8322C170.588 81.572 170.588 81.2853 170.49 81.0251C170.41 80.8992 170.296 80.798 170.162 80.7329C170.028 80.6677 169.878 80.6412 169.729 80.6561C169.537 80.6629 169.35 80.7225 169.19 80.8282C169.029 80.934 168.901 81.0818 168.818 81.2557C168.78 81.338 168.766 81.4296 168.778 81.5196C168.791 81.6095 168.829 81.6941 168.888 81.7631C169.262 82.1568 169.743 82.4333 170.271 82.5587C170.358 82.325 170.412 82.0806 170.433 81.8322H170.49ZM173.696 87.8516C173.702 87.8056 173.702 87.7591 173.696 87.7132C173.696 87.644 173.696 87.4826 173.327 87.4134C173.178 87.3865 173.025 87.3911 172.878 87.4269C172.732 87.4626 172.594 87.5287 172.474 87.6209C172.271 87.7778 172.089 87.9599 171.932 88.1629C172.081 88.3093 172.265 88.4156 172.467 88.472C172.669 88.5285 172.881 88.5332 173.085 88.4858C173.22 88.4308 173.341 88.3447 173.437 88.2346C173.533 88.1244 173.602 87.9932 173.638 87.8516H173.696ZM217.999 21.6736L217.619 21.7774C216.788 21.9965 215.97 22.9997 215.243 24.6948C212.487 31.1062 211.945 44.7592 212.464 47.6651C214.731 45.0197 216.703 42.1352 218.345 39.0628C221.482 33.4701 222.958 29.0075 222.358 26.8166C221.655 24.4181 220.006 22.9882 217.942 21.6736H217.999ZM241.385 67.0261C240.785 67.0261 240.139 67.0261 239.459 66.9338C234.77 66.7172 230.073 67.1047 225.483 68.087C221.124 69.0325 219.291 70.1165 219.025 70.5316C219.51 70.7738 221.701 70.9583 225.944 70.5316C230.203 70.0766 234.414 69.2431 238.525 68.0408C239.493 67.6718 240.451 67.3605 241.327 67.0261H241.385ZM246.874 78.05C245.307 79.2942 243.907 80.7361 242.711 82.3396L242.607 82.5011C243.092 82.2959 243.546 82.0242 243.956 81.6939C245.15 80.6886 246.123 79.4482 246.816 78.05H246.874ZM275.782 112.863C269.717 112.275 258.266 111.387 247.3 111.306C241.016 111.306 236.991 113.266 235.907 115.158C235.723 115.454 235.626 115.795 235.626 116.144C235.626 116.492 235.723 116.833 235.907 117.129C236.345 117.867 238.467 120.277 247.565 120.128C258.97 119.978 268.691 116.115 275.782 112.863Z" fill="#258F7D"/>
<path d="M1.08562 70.3576C2.08884 65.7451 3.79546 62.5509 6.22856 60.7521C7.6996 59.6556 9.01806 58.3682 10.1492 56.9237C11.6137 55.1363 12.5938 53.9486 15.6496 55.1248C16.2838 55.367 16.895 55.6206 17.4946 55.8628C19.3973 56.6585 21.1846 57.408 21.9803 56.8891C22.4185 56.6008 22.6606 55.8167 22.6952 54.5828C22.7834 52.5721 22.4657 50.5642 21.7612 48.6788C21.4705 48.0034 21.3064 47.2803 21.2769 46.5455C21.2769 46.1304 20.3659 45.3924 19.5472 44.689C17.9097 43.3283 15.8687 41.6332 15.9609 39.154C15.9055 37.8725 16.1214 36.5938 16.5943 35.4015C17.0672 34.2092 17.7866 33.1303 18.7054 32.2352C21.7958 29.4331 27.6767 28.3146 36.1753 28.9142L41.0991 29.2832C40.9343 28.0417 41.0166 26.7798 41.3413 25.5702V25.4895C42.4944 19.9199 46.6687 15.7109 53.9334 12.6321C57.391 11.1752 60.9673 10.0178 64.6229 9.17271C66.1565 8.80371 67.7479 8.42318 67.8747 8.01959C67.9788 7.63141 68.1825 7.27716 68.4657 6.99197C68.7489 6.70677 69.1016 6.50053 69.4891 6.39367C70.4577 6.18611 71.5993 6.76268 72.9485 8.14643C74.2976 9.53018 75.3354 10.5334 76.1311 10.5449C76.3848 10.5449 76.7884 10.4642 77.4687 9.7608C78.0342 9.09677 78.4299 8.30534 78.6218 7.45455C79.1292 5.93242 79.7058 4.20274 82.1965 3.49933C85.1139 2.66908 88.3542 4.32958 88.9308 5.80559C89.0379 6.00144 89.0989 6.21919 89.1089 6.4422C89.119 6.66522 89.078 6.88759 88.989 7.09231C88.9 7.29704 88.7654 7.4787 88.5954 7.62343C88.4254 7.76815 88.2246 7.87211 88.0083 7.92733C82.4043 10.7563 77.5872 14.9276 73.9863 20.0698C68.2206 27.9225 68.2206 33.2731 68.2206 33.3307V34.0687L67.5057 33.9188C59.118 32.277 50.6385 31.1449 42.1139 30.5286L36.0369 30.0789C27.8612 29.5023 22.2801 30.5171 19.4434 33.0886C18.6353 33.8766 18.006 34.8291 17.5981 35.8815C17.1903 36.934 17.0134 38.0618 17.0795 39.1886C17.0103 41.0797 18.7285 42.5096 20.239 43.8011C21.4498 44.8043 22.4069 45.6 22.3954 46.5801C22.436 47.1721 22.5764 47.753 22.8105 48.2983C23.573 50.318 23.9145 52.4724 23.8137 54.629C23.8137 56.3356 23.3756 57.3849 22.5684 57.9154C21.2538 58.7802 19.3742 57.9961 16.9872 56.9929C16.3991 56.7507 15.8341 56.497 15.1768 56.2664C12.8706 55.39 12.4208 55.9781 10.991 57.7078C9.79727 59.2217 8.40481 60.5676 6.85125 61.7091C3.24196 64.3844 1.31624 70.9342 1.08562 81.0471C1.08562 84.2066 2.99981 86.5821 6.28622 90.5142C8.20041 92.8205 10.5874 95.6803 13.2857 99.5548C20.4812 109.933 53.403 121.822 53.7374 121.937L53.426 123.09L53.057 123.021C46.3312 121.892 39.7831 119.884 33.5807 117.048C31.6781 116.148 29.9138 115.272 28.3571 114.511C23.1565 111.974 19.0513 109.967 17.9789 110.452C16.6528 111.074 7.98131 119.585 7.60078 124.289C7.53266 124.696 7.58221 125.115 7.74358 125.495C7.90496 125.874 8.17146 126.2 8.51175 126.434C12.8936 129.421 16.0993 127.829 16.5836 127.53H16.6644L17.2755 128.533H17.1833C16.4222 129.006 14.5772 130.412 14.7617 131.577C14.8655 132.188 15.6611 133.33 19.847 134.195C22.7875 134.794 25.1975 135.44 27.1347 135.947C32.2662 137.32 34.1803 137.827 35.9331 135.498C36.8902 134.241 37.5821 133.526 38.3316 133.653C39.0811 133.78 39.3925 134.598 39.8191 135.844C40.1513 136.881 40.5719 137.888 41.076 138.853C41.7679 140.145 41.9755 142.982 42.2292 146.579C42.8057 154.455 43.5899 165.248 49.8398 166.69C55.6054 168.039 59.7221 171.902 64.0348 175.995C66.953 178.972 70.2075 181.6 73.7326 183.825C80.6513 187.93 92.9437 184.379 98.8361 182.672C99.9807 182.278 101.158 181.985 102.353 181.796C104.879 181.68 105.617 177.864 105.813 175.188C102.572 167.739 100.554 160.059 101.2 157.28C101.2 157.15 101.235 157.034 101.304 156.934C101.368 156.692 101.501 156.473 101.688 156.305C101.874 156.137 102.105 156.027 102.353 155.989C102.884 155.92 103.391 156.231 103.864 156.888C105.663 159.414 107.531 168.281 107.069 174.969C108.96 179.646 111.562 184.003 114.784 187.884C118.613 191.902 122.96 195.393 127.71 198.262C131.17 200.488 134.122 202.414 136.29 205.043L136.532 205.331C141.144 210.924 148.882 220.322 159.525 218.638C166.156 217.623 168.543 219.157 170.134 220.172C170.556 220.583 171.106 220.838 171.692 220.897C172.278 220.956 172.867 220.814 173.363 220.495C174.558 219.875 175.713 219.182 176.822 218.419C179.763 216.516 182.795 214.544 187.2 215.086C189.829 215.398 192.458 217.058 194.995 218.661C198.213 220.691 201.257 222.616 203.69 221.371C205.869 220.218 209.398 219.526 213.123 218.742C217.735 217.762 222.636 216.747 225.588 214.914C230.569 211.835 234.19 200.28 231.596 189.429C231.077 187.227 230.639 185.29 230.258 183.572C228.794 176.987 228.055 173.678 225.426 170.645C224.907 170.034 224.527 169.596 224.827 169.146C224.897 169.033 225.004 168.946 225.129 168.9C225.254 168.854 225.392 168.851 225.519 168.892C226.556 169.204 236.473 179.893 236.462 193.915C236.462 198.793 236.462 203.002 236.854 203.475C236.973 203.485 237.092 203.485 237.211 203.475C238.007 203.417 239.333 203.325 241.213 205.389C243.088 207.659 244.48 210.288 245.306 213.115C246.333 216.009 247.232 218.5 249.584 219.491C250.38 219.826 250.887 220.08 251.233 220.252H251.303C251.625 219.445 252.559 217.681 256.676 214.821C264.979 209.056 267.054 206.749 270.514 202.137C273.754 197.824 270.156 189.625 267.527 183.687C264.829 177.564 255.027 164.614 254.935 164.487L255.869 163.772C256.272 164.303 265.855 176.953 268.553 183.214C271.309 189.464 275.068 198.02 271.402 202.898C267.873 207.603 265.74 209.932 257.287 215.801C253.078 218.73 252.49 220.299 252.271 220.898C252.242 221.038 252.181 221.169 252.093 221.281C252.005 221.393 251.892 221.483 251.764 221.544C251.429 221.671 251.153 221.544 250.611 221.29C250.069 221.037 249.792 220.887 249.042 220.564C246.206 219.411 245.191 216.516 244.107 213.495C243.339 210.816 242.028 208.323 240.256 206.173C238.757 204.524 237.857 204.593 237.2 204.639C236.985 204.681 236.763 204.676 236.55 204.624C236.337 204.572 236.138 204.475 235.966 204.339C235.251 203.671 235.193 202.033 235.193 193.904C235.064 187.206 233.006 180.688 229.266 175.131C230.138 177.827 230.85 180.572 231.4 183.352C231.78 185.059 232.207 186.996 232.726 189.187C233.958 194.468 233.914 199.967 232.599 205.227C231.319 210.324 228.99 214.222 226.199 215.951C223.062 217.889 218.127 218.926 213.353 219.93C209.698 220.702 206.25 221.429 204.209 222.466C201.176 224.012 197.867 221.913 194.35 219.699C191.928 218.165 189.414 216.586 187.039 216.24C183.061 215.755 180.328 217.52 177.433 219.399C176.273 220.186 175.063 220.899 173.812 221.532C173.138 221.941 172.351 222.125 171.565 222.057C170.779 221.988 170.036 221.671 169.442 221.152C167.92 220.172 165.844 218.846 159.652 219.791C148.351 221.532 140.349 211.858 135.563 206.069L135.333 205.781C133.268 203.29 130.374 201.41 127.019 199.231C122.18 196.324 117.755 192.779 113.861 188.691C110.96 185.236 108.561 181.389 106.735 177.264C106.566 178.338 106.255 179.385 105.813 180.377C105.544 181.096 105.076 181.724 104.463 182.185C103.85 182.647 103.118 182.924 102.353 182.983C101.252 183.182 100.165 183.455 99.1014 183.802C93.059 185.555 80.4668 189.199 73.0753 184.828C69.5394 182.577 66.2772 179.923 63.3544 176.918C59.1571 172.94 55.2018 169.181 49.7014 167.901C42.6097 166.263 41.791 154.974 41.1914 146.729C40.9492 143.408 40.7301 140.537 40.1651 139.476C39.6324 138.45 39.1851 137.381 38.8274 136.282C38.6896 135.802 38.5002 135.338 38.2624 134.898C37.7616 135.277 37.3321 135.741 36.994 136.27C34.7684 139.234 32.1624 138.577 26.9618 137.158C25.0361 136.639 22.6491 136.005 19.7317 135.405C15.9609 134.633 13.966 133.457 13.7354 131.831C13.6897 131.392 13.7392 130.949 13.8805 130.531C14.0218 130.113 14.2516 129.73 14.5541 129.409C12.1894 129.571 9.84509 128.88 7.94672 127.46C7.43376 127.109 7.02844 126.622 6.77597 126.054C6.52349 125.486 6.43378 124.859 6.51684 124.243C6.9435 118.847 16.0763 110.06 17.5753 109.368C19.0744 108.676 22.1878 110.106 28.9336 113.438C30.4903 114.199 32.2662 115.064 34.1573 115.964C38.0211 117.762 42.0435 119.198 46.1729 120.253C35.8754 116.079 17.7137 107.892 12.3863 100.235C9.72253 96.3952 7.35862 93.5585 5.4675 91.2753C2.00812 87.1356 -0.0675105 84.6333 0.0016771 81.024C0.0257526 77.4423 0.388683 73.8709 1.08562 70.3576ZM87.7892 6.55511C87.8068 6.5067 87.8068 6.45362 87.7892 6.40521C87.4317 5.43658 84.8026 4.09896 82.4848 4.76777C80.5937 5.29821 80.1786 6.53205 79.7058 7.96193C79.4532 8.96205 78.9716 9.88975 78.299 10.6718C78.0343 11.0033 77.7042 11.2767 77.3292 11.4751C76.9543 11.6735 76.5425 11.7926 76.1196 11.8249C74.8511 11.8249 73.7095 10.741 72.0951 9.08046C70.7345 7.68518 70.0195 7.59293 69.7197 7.65059C69.4199 7.70824 69.1086 8.18102 68.9702 8.53849C68.6242 9.47252 67.3673 9.77234 64.8881 10.372C61.2889 11.1709 57.7662 12.2821 54.3601 13.693C47.4413 16.6104 43.5668 20.5425 42.4483 25.7085V25.7777C41.8832 28.453 42.2407 29.2371 42.333 29.3524C50.6508 29.9769 58.9276 31.0625 67.1252 32.6042C67.2981 30.8284 68.2783 25.9622 73.0522 19.3548C76.7572 14.0339 81.7209 9.71199 87.5009 6.77421C87.7085 6.77421 87.7777 6.6243 87.7892 6.55511ZM102.434 157.176C102.308 157.385 102.24 157.624 102.238 157.868C101.984 160.244 103.391 166.113 105.882 172.282C105.799 169.177 105.413 166.087 104.729 163.057C103.783 158.814 102.722 157.292 102.422 157.2L102.434 157.176Z" fill="#258F7D"/>
</svg>
