<svg width="539" height="514" viewBox="0 0 539 514" fill="none" xmlns="http://www.w3.org/2000/svg">
<path d="M680.299 510.701L557.029 511.251C526.029 511.381 510.539 511.451 502.139 511.151C493.319 510.831 491.779 509.901 489.489 503.441C486.37 493.887 483.733 484.181 481.589 474.361C479.059 463.161 476.989 451.841 474.739 439.261C472.659 427.701 470.559 415.701 469.559 400.701C469.054 392.467 468.987 384.212 469.359 375.971L469.209 376.871C467.895 384.088 466.206 391.231 464.149 398.271C462.899 402.801 461.689 407.191 460.669 411.711C461.149 416.581 461.669 421.391 462.169 426.111C462.449 428.731 462.739 431.371 463.029 434.001C464.939 451.321 466.739 467.681 466.359 475.411C466.239 477.981 465.829 481.411 463.789 481.571C461.139 481.781 459.259 475.471 458.159 470.141C455.849 459.001 454.379 439.291 456.589 422.371C457.079 418.651 457.749 415.071 458.529 411.601C457.239 398.601 456.129 385.141 455.529 371.781C449.661 368.68 444.462 364.453 440.229 359.341C440.959 367.451 442.009 375.791 443.039 384.001C443.299 386.001 443.549 388.051 443.799 390.071C445.099 400.531 446.309 411.141 447.469 421.411C448.549 430.891 449.669 440.701 450.859 450.411C451.029 451.831 451.209 453.251 451.379 454.671C453.789 474.121 456.059 492.501 453.049 502.401C451.129 508.721 446.719 511.041 434.189 512.321C420.869 513.681 420.999 513.791 378.589 513.981H371.559V511.881L378.659 511.901C421.019 511.711 420.849 511.611 434.069 510.261C446.859 508.951 449.659 506.601 451.069 501.831C453.949 492.361 451.599 473.351 449.329 454.971C449.159 453.551 448.979 452.131 448.809 450.711C447.609 440.951 446.499 431.141 445.419 421.651C444.249 411.391 443.049 400.781 441.749 390.331C441.502 388.331 441.249 386.311 440.989 384.271C439.819 374.981 438.629 365.541 437.899 356.421C434.628 352.201 431.89 347.593 429.749 342.701C424.699 330.891 426.889 322.441 437.299 313.521C438.489 312.521 439.819 311.461 441.299 310.411C443.199 304.211 445.499 299.851 447.559 298.341C447.99 297.97 448.517 297.728 449.08 297.645C449.643 297.561 450.219 297.64 450.739 297.871C451.972 298.438 453.029 299.965 453.909 302.451C457.909 300.261 461.909 298.251 465.799 296.591C465.439 293.965 465.105 291.545 464.799 289.331L464.529 287.481C464.319 285.981 464.109 284.561 463.919 283.211C462.438 281.989 460.544 281.384 458.629 281.521C455.299 281.521 450.129 282.711 444.889 284.041C439.559 286.801 433.309 288.591 429.559 288.701C428.585 288.747 427.61 288.642 426.669 288.391C423.614 288.886 420.497 288.838 417.459 288.251C415.269 287.831 413.039 287.171 410.679 286.471C408.479 285.821 406.209 285.151 403.999 284.701C399.199 283.701 394.879 283.861 389.079 285.171C387.449 285.531 385.689 286.001 383.819 286.501C378.269 287.971 371.979 289.641 364.989 289.941C355.476 290.269 346.016 288.404 337.339 284.491C329.039 280.491 324.199 274.921 323.719 268.741C323.239 262.561 327.039 255.741 329.809 250.661L330.199 249.971L330.829 248.791C320.289 239.361 311.829 227.591 307.669 216.381C303.919 206.381 302.759 194.571 304.289 182.211C304.949 176.931 306.099 171.131 309.009 168.211C308.634 166.974 307.977 165.841 307.089 164.901C303.082 166.764 298.834 168.056 294.469 168.741C290.604 169.496 286.658 169.745 282.729 169.481C281.669 172.481 279.349 174.921 275.629 177.041C270.159 180.161 260.819 183.101 250.629 184.911C241.587 186.609 232.331 186.832 223.219 185.571C211.619 184.051 200.099 180.771 192.419 176.791C184.079 172.481 178.669 166.551 177.179 160.101C176.568 157.081 176.697 153.958 177.553 150.998C178.41 148.038 179.969 145.329 182.099 143.101C183.893 141.253 185.858 139.579 187.969 138.101C188.719 137.541 189.449 136.991 190.129 136.441C187.096 133.764 184.384 130.744 182.049 127.441C180.949 125.901 179.899 124.251 178.899 122.541L178.369 122.231C172.789 119.011 167.979 116.231 162.969 111.361C161.369 109.811 159.749 108.041 158.179 106.361C154.769 102.621 151.179 98.7714 148.559 98.0114C148.095 97.8708 147.606 97.8329 147.126 97.9002C146.646 97.9675 146.186 98.1386 145.779 98.4014C144.357 99.4497 143.276 100.893 142.669 102.551C143.616 102.691 144.555 102.888 145.479 103.141C152.869 105.241 153.699 110.681 153.889 115.621C153.949 117.001 153.949 118.441 153.889 119.951C154.288 121.255 154.288 122.648 153.889 123.951C153.856 127.738 154.1 131.521 154.619 135.271C154.879 137.061 155.229 138.931 155.619 140.911C156.889 147.831 158.339 155.671 156.279 162.251C153.729 170.371 145.719 176.961 135.859 179.031C127.369 180.821 116.429 179.171 111.179 169.211C106.399 160.131 106.719 144.521 111.939 132.101C117.159 119.681 126.939 111.561 134.219 109.101C135.786 108.548 137.428 108.238 139.089 108.181C139.159 107.511 139.259 106.841 139.389 106.181C139.519 105.521 139.649 104.941 139.809 104.351C134.149 103.891 126.229 104.351 117.109 105.711C108.232 107.004 99.4905 109.092 90.9886 111.951C84.2386 114.251 78.4587 116.821 72.2187 121.871C68.9287 124.531 65.4387 127.941 62.0587 131.231C59.1887 134.031 56.2087 136.931 53.3987 139.341C51.1493 141.294 48.7372 143.05 46.1887 144.591C47.6076 146.547 48.6013 148.778 49.1059 151.141C49.6105 153.504 49.6149 155.947 49.1187 158.311C47.6487 166.641 40.6887 178.731 31.5987 184.551C22.9187 190.111 12.1587 189.921 6.00865 186.861C-0.681349 183.531 -0.541345 177.191 0.598655 170.861C1.83865 164.001 5.02866 154.061 9.96866 148.611L10.1787 148.391C14.5587 143.711 20.1787 142.681 25.5387 141.691L27.1687 141.391C28.6887 141.101 30.3187 140.771 31.9687 140.391C31.9215 139.696 32.0741 139.002 32.4087 138.391C32.6068 138.053 32.8788 137.764 33.2044 137.546C33.5299 137.328 33.9006 137.186 34.2887 137.131C35.8428 137.015 37.3947 137.385 38.7287 138.191C40.266 137.559 41.7229 136.747 43.0687 135.771C45.3313 133.902 47.2618 131.664 48.7787 129.151C49.7559 127.677 50.8142 126.258 51.9487 124.901C55.1987 121.161 59.8087 118.301 72.0387 111.561C87.9087 102.821 106.329 93.5614 122.599 90.8914C139.769 88.1014 154.249 93.1014 163.599 97.1014C166.449 98.3114 168.699 99.3614 170.599 100.351C169.409 92.0514 171.199 85.3514 183.449 75.7414C195.369 66.4214 216.559 54.6614 232.739 48.3914C246.099 43.2114 257.529 41.2014 267.679 42.2714H268.219C268.579 38.0621 269.669 33.9475 271.439 30.1114C276.799 18.5814 288.909 8.63144 298.529 3.89144C308.669 -1.10856 317.719 -1.28856 326.189 3.34144C333.939 7.57144 341.619 16.2614 345.319 24.9614C347.116 29.1494 348.058 33.6543 348.089 38.2114C354.916 36.1113 362.132 35.5949 369.189 36.7014C381.189 38.4014 395.139 44.4414 406.579 52.8714C415.879 59.7214 422.379 67.4414 425.879 75.8114C429.059 83.4114 429.429 90.6414 427.069 99.2514C424.455 107.993 420.435 116.251 415.169 123.701C410.169 130.701 405.279 134.391 398.589 138.361C388.309 144.481 380.229 147.141 373.879 146.481C365.589 145.631 359.159 138.771 353.439 131.481C351.379 128.851 349.319 126.041 347.319 123.331C343.449 118.061 339.799 113.091 336.319 109.551C334.254 107.51 332.038 105.628 329.689 103.921C327.139 102.001 324.949 100.331 323.689 98.0614C321.489 94.1314 322.039 88.4614 325.199 82.5014C327.195 79.0253 329.476 75.7206 332.019 72.6214C333.649 70.5114 335.339 68.3314 336.839 66.1114C340.654 60.5493 343.385 54.3168 344.889 47.7414C345.38 45.6055 345.714 43.4363 345.889 41.2514C342.839 42.543 340.109 44.4849 337.889 46.9414C333.889 51.4514 332.299 57.8414 330.719 64.0214C329.907 67.5667 328.851 71.0517 327.559 74.4514C325.179 80.1614 321.559 84.7014 318.559 88.3514C317.163 89.9548 315.912 91.6782 314.819 93.5014C313.409 96.2714 314.639 97.5914 317.339 100.071L318.219 100.891C319.389 101.991 320.549 103.211 321.769 104.501C323.569 106.391 325.429 108.351 327.549 110.191C328.549 111.041 329.549 111.851 330.639 112.721C333.86 115.104 336.778 117.871 339.329 120.961C342.749 125.321 345.639 131.281 348.429 137.051L349.299 138.851C352.029 144.461 355.129 150.851 361.179 153.641C366.889 156.301 375.679 156.231 384.109 153.461C392.309 150.761 399.519 145.621 405.639 141.011C406.729 140.191 407.789 139.381 408.809 138.591C413.809 134.771 418.139 131.471 421.299 130.271C421.721 130.117 422.151 129.987 422.589 129.881C423.111 126.217 423.866 122.59 424.849 119.021C429.449 102.451 440.079 88.3614 453.259 81.3314C466.439 74.3014 476.259 77.6714 482.159 81.7614C491.869 88.5014 496.939 101.101 498.259 104.761C500.259 110.411 500.899 115.131 500.119 119.211C507.147 117.975 514.347 118.097 521.329 119.571C535.647 122.308 549.053 128.582 560.329 137.821C570.42 146.414 577.978 157.595 582.189 170.161C586.099 181.731 586.679 192.871 583.929 203.271C580.859 215.131 573.559 225.041 569.559 229.891C564.626 235.846 558.698 240.901 552.039 244.831C544.987 249.307 537.333 252.755 529.309 255.071C522.579 256.891 512.609 258.511 503.739 251.641C497.619 246.881 492.039 238.071 487.119 230.301C485.639 227.961 484.249 225.751 482.859 223.691C476.629 214.391 471.309 208.911 465.079 205.391C461.771 203.612 458.285 202.188 454.679 201.141C457.199 204.991 460.629 207.021 464.229 209.141L465.689 210.011C471.303 213.095 475.84 217.824 478.689 223.561C480.561 227.374 482.23 231.283 483.689 235.271C485.315 239.937 487.277 244.479 489.559 248.861C493.559 255.861 498.559 258.481 503.829 260.781C511.129 264.001 517.149 265.571 522.229 265.601C527.979 265.601 533.619 263.691 539.459 259.651C543.247 256.889 546.852 253.883 550.249 250.651C551.829 249.221 553.319 247.871 554.649 246.751C559.049 243.051 561.959 241.821 565.389 242.211C567.37 242.475 569.278 243.138 570.996 244.159C572.715 245.18 574.209 246.538 575.389 248.151C578.119 252.011 578.329 256.861 575.969 261.811C572.969 268.051 566.309 273.811 556.119 278.871C550.729 281.561 531.529 290.301 510.669 290.081C494.109 289.901 478.759 283.941 469.619 274.141C467.389 271.735 465.461 269.065 463.879 266.191V266.491C464.339 271.041 464.879 275.801 465.809 282.141L466.539 282.801C467.603 283.843 468.796 284.744 470.089 285.481C474.499 287.911 482.919 289.431 491.829 291.041H491.909C500.739 292.641 509.829 294.281 520.839 293.791C522.959 293.701 525.629 293.501 528.659 293.101C529.359 292.299 530.125 291.557 530.949 290.881C536.669 286.251 545.709 285.081 551.789 286.471C553.122 285.805 554.455 285.111 555.789 284.391C560.87 281.276 565.698 277.765 570.229 273.891C575.329 269.761 580.139 265.891 585.079 263.571C594.539 259.191 604.249 260.751 611.719 267.851C616.239 272.141 619.719 278.381 623.179 284.411C625.179 287.971 627.109 291.341 629.179 294.251C630.519 296.141 631.909 297.831 633.269 299.461C637.469 304.531 641.449 309.321 640.919 317.831C640.249 328.781 632.099 346.211 621.119 360.221C615.189 367.781 608.799 373.931 602.629 378.011C595.439 382.761 588.769 384.641 582.789 383.601C570.319 381.441 559.839 365.881 554.189 352.041C553.979 351.521 553.769 351.041 553.579 350.491C552.829 354.131 551.584 357.65 549.879 360.951C545.959 368.311 539.459 373.311 533.169 378.141C531.449 379.471 529.659 380.851 527.979 382.241C526.299 383.631 524.619 385.111 522.979 386.511C517.039 391.781 512.339 395.941 508.389 394.191C503.129 391.871 501.389 379.351 501.919 368.701C502.689 357.255 505.621 346.057 510.559 335.701C515.309 325.801 521.119 318.871 527.369 315.641C534.649 311.881 541.849 313.421 545.699 319.561C547.789 322.891 549.059 327.761 550.519 333.401C551.149 335.841 551.829 338.401 552.619 341.151C552.837 337.348 552.673 333.532 552.129 329.761C551.569 326.437 550.708 323.17 549.559 320.001C548.469 316.701 547.609 314.091 548.039 311.411C548.519 308.411 550.609 305.591 552.639 302.871C553.839 301.355 554.912 299.743 555.849 298.051C556.639 296.471 557.419 294.171 556.609 292.141C556.242 291.377 555.714 290.7 555.062 290.158C554.409 289.616 553.648 289.222 552.829 289.001L551.989 288.741C544.92 291.932 537.425 294.078 529.739 295.111C527.419 297.961 525.739 301.591 523.959 305.371C522.64 308.367 521.127 311.274 519.429 314.071C517.116 317.508 514.51 320.736 511.639 323.721C508.769 326.871 506.069 329.851 504.639 332.851C502.869 336.491 502.859 340.351 502.839 344.431C502.876 346.746 502.766 349.061 502.509 351.361C501.449 359.501 497.209 365.801 489.909 370.071C484.304 373.256 478.002 375.014 471.559 375.191C471.14 383.648 471.194 392.121 471.719 400.571C472.629 415.451 474.719 427.361 476.819 438.881C479.069 451.431 481.139 462.721 483.659 473.881C486.239 485.271 489.309 496.591 491.479 502.731C493.479 508.271 494.249 508.731 502.219 509.021C510.569 509.321 526.099 509.261 557.019 509.121L680.289 508.581L680.299 510.701ZM554.299 346.361C554.845 347.975 555.459 349.615 556.139 351.281C561.569 364.601 571.519 379.541 583.139 381.561C588.569 382.501 594.729 380.731 601.449 376.281C607.449 372.331 613.649 366.331 619.449 358.951C630.199 345.251 638.159 328.301 638.809 317.741C639.279 310.061 635.909 306.001 631.639 300.851C630.259 299.191 628.829 297.471 627.449 295.511C625.329 292.511 623.399 289.101 621.349 285.511C618.009 279.611 614.559 273.511 610.269 269.441C603.469 262.971 594.609 261.561 585.979 265.551C581.279 267.731 576.569 271.551 571.569 275.601C566.955 279.544 562.036 283.115 556.859 286.281C556.149 286.701 555.419 287.091 554.689 287.471C556.483 288.2 557.919 289.604 558.689 291.381C559.569 293.571 559.279 296.211 557.859 299.031C556.869 300.838 555.728 302.557 554.449 304.171C552.579 306.681 550.649 309.281 550.249 311.771C549.909 313.951 550.699 316.341 551.699 319.371C552.854 322.646 553.721 326.016 554.289 329.441C555.052 335.053 555.042 340.743 554.259 346.351L554.299 346.361ZM459.299 418.831C459.089 420.081 458.899 421.361 458.729 422.651C456.907 438.324 457.426 454.181 460.269 469.701C461.609 476.161 462.999 478.701 463.609 479.301C464.084 478.023 464.312 476.665 464.279 475.301C464.649 467.741 462.859 451.461 460.969 434.231C460.679 431.611 460.389 428.961 460.099 426.341C459.809 423.721 459.559 421.351 459.299 418.821V418.831ZM521.389 322.931C517.719 327.01 514.684 331.618 512.389 336.601C507.575 346.724 504.725 357.667 503.989 368.851C503.369 380.441 505.649 390.731 509.189 392.301C511.899 393.491 516.579 389.351 521.529 384.971C523.129 383.551 524.789 382.081 526.529 380.641C528.269 379.201 530.039 377.851 531.779 376.511C537.889 371.811 544.209 366.951 547.909 359.991C550.028 355.762 551.418 351.204 552.019 346.511C550.489 342.001 549.389 337.771 548.389 333.911C546.969 328.441 545.749 323.721 543.829 320.661C539.919 314.431 533.219 314.951 528.259 317.511C525.677 318.91 523.354 320.74 521.389 322.921V322.931ZM457.779 372.761C458.249 383.661 459.089 394.611 460.089 405.331C460.759 402.751 461.449 400.221 462.139 397.721C464.174 390.75 465.843 383.677 467.139 376.531L467.379 375.071C464.081 374.782 460.845 374 457.779 372.751V372.761ZM471.679 373.081C477.71 372.896 483.605 371.237 488.849 368.251C492.009 366.528 494.71 364.071 496.724 361.086C498.737 358.102 500.004 354.678 500.419 351.101C500.661 348.887 500.764 346.659 500.729 344.431C500.729 340.291 500.729 336.011 502.729 331.931C504.309 328.671 507.119 325.581 510.099 322.311C512.881 319.406 515.413 316.272 517.669 312.941C519.309 310.22 520.776 307.398 522.059 304.491C523.411 301.369 525.009 298.36 526.839 295.491C524.599 295.731 522.599 295.871 520.939 295.951C509.689 296.451 500.479 294.781 491.569 293.171H491.449C482.359 291.521 473.779 289.971 469.069 287.381C468.069 286.832 467.131 286.178 466.269 285.431C466.349 286.021 466.439 286.631 466.529 287.241L466.799 289.091C467.099 291.151 467.429 293.401 467.799 295.811C471.262 294.322 474.867 293.186 478.559 292.421C482.489 291.731 485.159 292.251 486.749 294.011C489.309 296.841 488.469 302.251 486.419 309.511C485.419 312.951 484.179 316.861 482.839 321.001C479.839 330.311 476.409 340.851 474.269 352.071C472.966 359.01 472.101 366.024 471.679 373.071V373.081ZM463.249 260.081C465.1 264.736 467.777 269.017 471.149 272.721C479.899 282.111 494.679 287.821 510.669 287.991C526.879 288.161 544.279 282.431 555.159 276.991C564.909 272.121 571.259 266.711 574.039 260.911C576.039 256.681 575.909 252.591 573.639 249.381C572.628 248.018 571.356 246.869 569.896 246.002C568.437 245.135 566.82 244.567 565.139 244.331C562.339 244.011 559.949 245.071 555.999 248.381C554.699 249.471 553.229 250.811 551.669 252.231C548.206 255.521 544.531 258.581 540.669 261.391C534.459 265.681 528.429 267.751 522.229 267.721C516.849 267.721 510.559 266.051 502.979 262.721C497.419 260.271 492.079 257.441 487.739 249.921C485.384 245.45 483.356 240.815 481.669 236.051C480.259 232.136 478.643 228.297 476.829 224.551C474.126 219.166 469.846 214.732 464.559 211.841L463.119 210.981C458.899 208.481 454.549 205.901 451.709 200.281C450.709 199.991 449.709 199.721 448.709 199.441L448.179 199.301C449.801 201.134 451.114 203.218 452.069 205.471C453.749 209.471 453.249 212.251 450.339 215.021C449.709 215.621 448.959 216.231 448.159 216.871L447.509 217.391C449.222 218.98 450.761 220.746 452.099 222.661C456.099 228.391 459.209 236.751 461.359 247.501C462.339 252.341 462.859 256.341 463.249 260.061V260.081ZM532.249 292.591C537.66 291.678 542.96 290.193 548.059 288.161C543.059 287.871 536.679 289.001 532.259 292.581L532.249 292.591ZM457.659 370.431C460.827 371.832 464.207 372.697 467.659 372.991C469.949 356.501 469.479 337.901 468.659 324.811C468.009 314.751 467.009 306.061 466.039 298.811C462.279 300.451 458.319 302.421 454.479 304.561C455.552 309.042 456.222 313.611 456.479 318.211C457.069 325.981 457.149 335.491 457.229 345.571C457.289 353.101 457.349 360.891 457.619 368.801L457.659 370.431ZM468.039 297.951C469.039 305.351 470.039 314.281 470.749 324.671C471.485 335.472 471.635 346.305 471.199 357.121C471.479 355.311 471.779 353.501 472.129 351.701C474.289 340.341 477.729 329.701 480.759 320.371C482.099 316.251 483.359 312.371 484.319 308.951C485.849 303.531 487.139 297.691 485.119 295.441C484.059 294.271 482.019 293.971 478.869 294.521C475.162 295.288 471.543 296.43 468.069 297.931L468.039 297.951ZM439.999 355.701C444.309 361.181 449.659 366.251 455.529 369.401V368.901C455.259 360.971 455.199 353.161 455.139 345.611C455.059 335.611 454.979 326.101 454.399 318.401C454.141 314.12 453.539 309.866 452.599 305.681C449.336 307.555 446.168 309.591 443.109 311.781C441.133 318.689 439.942 325.797 439.559 332.971C439.192 340.549 439.339 348.143 439.999 355.701ZM453.209 198.501C457.681 199.687 462.003 201.381 466.089 203.551C472.629 207.241 478.169 212.911 484.589 222.551C485.989 224.641 487.399 226.861 488.879 229.211C493.709 236.831 499.179 245.471 505.009 250.001C511.279 254.861 518.589 255.811 528.729 253.071C536.555 250.805 544.02 247.438 550.899 243.071C557.369 239.268 563.122 234.361 567.899 228.571C571.849 223.851 578.899 214.231 581.899 202.811C584.549 192.811 583.969 182.081 580.199 170.921C576.112 158.723 568.779 147.867 558.989 139.521C547.996 130.503 534.923 124.377 520.959 121.701C512.959 120.181 505.709 120.141 499.519 121.561C499.138 122.68 498.635 123.753 498.019 124.761C496.159 127.841 493.169 130.591 490.019 133.501C487.465 135.773 485.038 138.183 482.749 140.721C476.429 147.941 471.309 157.791 468.829 163.021C466.033 168.726 463.815 174.695 462.209 180.841C462.069 181.391 461.939 181.941 461.819 182.471C460.819 186.831 459.889 190.601 455.579 193.061C454.402 193.713 453.154 194.227 451.859 194.591C452.207 195.928 452.659 197.235 453.209 198.501ZM435.209 318.501C428.589 325.571 427.659 332.501 431.709 341.941C433.349 345.654 435.359 349.192 437.709 352.501C437.228 345.969 437.148 339.414 437.469 332.871C437.829 326.461 438.797 320.099 440.359 313.871C439.789 314.321 439.249 314.771 438.739 315.211C437.496 316.228 436.314 317.317 435.199 318.471L435.209 318.501ZM444.209 308.421C446.649 306.771 449.299 305.141 452.029 303.571C451.299 301.341 450.529 300.181 449.839 299.871C449.709 299.811 449.409 299.671 448.839 300.111C447.429 301.061 445.749 303.991 444.169 308.391L444.209 308.421ZM450.019 280.701C452.807 280.026 455.653 279.617 458.519 279.481C460.219 279.406 461.912 279.75 463.449 280.481C462.709 275.071 462.189 270.821 461.779 266.721C461.689 265.861 461.609 265.021 461.529 264.161C461.419 262.991 461.299 261.811 461.179 260.611C458.966 254.756 457.292 248.711 456.179 242.551L456.019 241.761C454.019 232.361 452.759 227.281 447.409 223.691C446.118 222.856 444.76 222.13 443.349 221.521C442.147 223.033 441.248 224.761 440.699 226.611C440.143 228.666 439.854 230.783 439.839 232.911C442.059 233.241 444.479 235.311 446.559 238.741C448.429 241.841 450.179 246.571 448.969 249.741C448.726 250.476 448.272 251.123 447.664 251.601C447.055 252.08 446.32 252.368 445.549 252.431C444.439 252.481 442.309 252.021 440.549 248.431C439.079 245.431 438.009 240.511 437.779 235.621C437.135 236.141 436.537 236.713 435.989 237.331C435.094 238.461 433.942 239.36 432.629 239.951C430.069 240.771 427.269 238.621 424.959 234.071C424.409 232.991 423.899 231.781 423.399 230.621C422.169 227.731 420.899 224.741 418.979 223.311C418.401 222.881 417.739 222.579 417.035 222.424C416.332 222.268 415.604 222.264 414.899 222.411C413.928 222.642 413.016 223.073 412.22 223.675C411.425 224.278 410.764 225.039 410.279 225.911C407.789 230.001 407.039 237.701 408.639 242.731C410.109 247.341 413.499 249.731 418.489 252.171C422.899 254.258 427.454 256.023 432.119 257.451C433.639 257.911 435.119 258.311 436.459 258.701C438.949 259.401 441.309 260.061 443.919 261.031C447.679 262.411 452.919 264.721 454.539 268.711C456.059 272.411 454.319 276.991 450.019 280.701ZM444.019 282.141C445.202 281.52 446.341 280.818 447.429 280.041C451.859 276.831 453.859 272.691 452.529 269.511C451.529 267.091 448.439 264.951 443.119 262.991C440.599 262.061 438.279 261.411 435.829 260.721C434.429 260.331 432.979 259.931 431.439 259.451C426.668 257.998 422.012 256.193 417.509 254.051C413.199 251.981 408.449 249.261 406.559 243.351C404.769 237.731 405.559 229.411 408.409 224.791C409.042 223.668 409.902 222.689 410.936 221.918C411.969 221.146 413.152 220.599 414.409 220.311C415.403 220.107 416.43 220.116 417.421 220.336C418.411 220.557 419.345 220.985 420.159 221.591C422.539 223.361 423.929 226.591 425.269 229.771C425.769 230.961 426.269 232.081 426.769 233.091C428.479 236.471 430.499 238.361 431.899 237.911C432.859 237.407 433.7 236.705 434.369 235.851C435.272 234.749 436.391 233.844 437.659 233.191C437.65 230.777 437.962 228.373 438.589 226.041C439.156 224.123 440.056 222.318 441.249 220.711C439.079 219.851 436.749 219.061 434.449 218.281C431.107 217.215 427.826 215.97 424.619 214.551C421.354 213.105 418.405 211.033 415.939 208.451C411.914 208.329 407.888 208.664 403.939 209.451L403.629 209.511C400.071 214.07 396.802 218.846 393.839 223.811C392.059 226.811 390.129 230.201 388.089 233.811C385.039 239.201 381.889 244.761 378.839 249.561C381.279 253.961 385.839 257.221 392.179 258.931C397.179 260.291 403.179 260.611 407.939 260.881C410.245 260.948 412.545 261.145 414.829 261.471C417.159 261.911 418.339 262.771 418.329 264.041C418.329 265.481 416.579 266.641 413.669 267.131C410.759 267.621 406.419 267.391 402.669 267.131C401.279 267.051 399.969 266.971 398.829 266.941C397.689 266.911 395.289 266.831 394.739 267.561C394.449 267.921 394.489 268.751 394.849 269.931C396.109 274.171 400.419 280.861 404.279 281.721C406.919 282.301 409.879 280.301 412.489 278.541C413.724 277.613 415.067 276.837 416.489 276.231C420.879 274.721 422.819 279.541 423.749 281.861L423.909 282.271C424.659 284.141 425.229 285.561 426.819 286.201C428.619 285.921 430.659 285.501 433.069 284.911C434.929 284.461 437.009 283.911 439.209 283.321C440.789 282.941 442.409 282.511 444.029 282.101L444.019 282.141ZM407.929 283.541C409.039 283.841 410.149 284.171 411.229 284.491C413.539 285.181 415.719 285.821 417.809 286.221C419.783 286.611 421.801 286.739 423.809 286.601C423.03 285.545 422.42 284.374 421.999 283.131L421.839 282.721C420.269 278.831 419.069 277.671 417.229 278.301C415.984 278.852 414.807 279.544 413.719 280.361C411.941 281.661 409.997 282.717 407.939 283.501L407.929 283.541ZM439.799 235.111C439.873 239.361 440.752 243.559 442.389 247.481C443.279 249.301 444.389 250.361 445.389 250.311C445.746 250.262 446.082 250.11 446.355 249.874C446.629 249.638 446.828 249.328 446.929 248.981C447.669 247.051 446.749 243.301 444.669 239.871C443.119 237.231 441.289 235.471 439.809 235.071L439.799 235.111ZM332.429 250.231C332.299 250.481 332.159 250.731 332.009 250.991L331.629 251.691C328.839 256.781 325.359 263.101 325.789 268.591C326.219 274.081 330.619 278.951 338.209 282.591C346.572 286.359 355.691 288.152 364.859 287.831C371.619 287.541 377.789 285.901 383.229 284.461C385.119 283.961 386.909 283.461 388.569 283.111C392.431 282.155 396.418 281.801 400.389 282.061C396.669 279.151 393.739 273.591 392.839 270.571C392.469 269.341 392.099 267.571 393.079 266.301C394.059 265.031 395.979 264.771 398.909 264.851C400.079 264.851 401.409 264.971 402.819 265.051C406.449 265.271 410.569 265.511 413.339 265.051C414.322 264.931 415.266 264.589 416.099 264.051C415.585 263.787 415.031 263.611 414.459 263.531C412.267 263.228 410.06 263.041 407.849 262.971C402.969 262.701 396.849 262.371 391.649 260.971C385.219 259.231 380.389 255.971 377.569 251.541C373.319 257.941 368.339 263.691 360.479 263.781C352.929 263.871 342.559 258.821 332.429 250.231ZM444.759 219.851C446.07 220.443 447.334 221.135 448.539 221.921L449.389 222.531C448.334 221.181 447.167 219.924 445.899 218.771C445.559 219.121 445.139 219.471 444.759 219.851ZM445.909 215.981L446.849 215.221C447.609 214.601 448.329 214.021 448.909 213.481C451.179 211.321 451.479 209.481 450.139 206.291C448.757 203.011 446.531 200.154 443.689 198.011C440.879 197.253 438.187 196.113 435.689 194.621C431.771 193.823 427.73 193.84 423.819 194.671C418.509 195.881 415.099 198.671 415.109 201.871C415.226 203.522 415.887 205.087 416.989 206.321C421.726 206.494 426.425 207.229 430.989 208.511C436.42 209.956 441.498 212.498 445.909 215.981ZM442.829 218.811C443.309 218.301 443.829 217.811 444.269 217.391C440.147 214.216 435.436 211.891 430.409 210.551C426.734 209.514 422.966 208.844 419.159 208.551C421.105 210.163 423.257 211.508 425.559 212.551C428.692 213.932 431.896 215.144 435.159 216.181C437.709 217.051 440.299 217.931 442.699 218.911L442.829 218.811ZM444.639 196.081C446.179 196.541 447.759 196.981 449.289 197.401L450.629 197.771C450.319 196.921 450.029 196.021 449.779 195.091C447.875 195.469 445.939 195.653 443.999 195.641L444.639 196.081ZM451.349 192.521C452.447 192.208 453.507 191.772 454.509 191.221C458.019 189.221 458.779 186.021 459.739 181.971C459.869 181.431 459.999 180.881 460.139 180.311C461.779 174.033 464.04 167.932 466.889 162.101C469.429 156.771 474.649 146.731 481.139 139.311C483.478 136.717 485.958 134.253 488.569 131.931C491.749 129.001 494.499 126.471 496.209 123.661C496.489 123.191 496.739 122.721 496.969 122.241C493.071 123.404 489.465 125.381 486.389 128.041C480.449 133.221 476.119 141.561 472.289 148.921C470.379 152.601 468.569 156.081 466.669 158.991C464.303 162.496 461.586 165.75 458.559 168.701C455.789 171.571 453.379 174.051 452.059 177.351C450.339 181.701 450.339 187.501 451.349 192.521ZM435.729 192.111L435.949 192.191C440.248 193.622 444.845 193.908 449.289 193.021C448.179 187.681 448.159 181.481 450.109 176.611C451.589 172.921 454.109 170.301 457.109 167.261C460.035 164.398 462.659 161.242 464.939 157.841C466.779 155.011 468.569 151.581 470.459 147.941C474.379 140.421 478.809 131.891 485.039 126.441C488.753 123.252 493.159 120.971 497.909 119.781C498.909 115.891 498.409 111.321 496.339 105.521C495.069 101.961 490.209 89.8814 481.019 83.5214C473.269 78.1414 464.019 78.0314 454.329 83.2114C441.639 89.9814 431.409 103.591 426.959 119.611C426.038 122.957 425.327 126.357 424.829 129.791C425.318 129.858 425.792 130.01 426.229 130.241C426.966 130.693 427.597 131.298 428.078 132.016C428.56 132.734 428.881 133.548 429.019 134.401C429.689 137.091 429.809 141.781 426.609 148.821C425.744 150.709 424.773 152.545 423.699 154.321C423.949 162.242 425.093 170.108 427.109 177.771C429.269 185.361 432.209 189.521 435.729 192.111ZM333.429 248.291C343.239 256.761 353.309 261.751 360.429 261.671C367.049 261.591 371.379 257.141 376.429 249.431C375.891 248.273 375.482 247.059 375.209 245.811C373.529 238.271 376.069 228.191 381.529 220.721C386.349 214.121 393.389 209.721 402.459 207.611L403.629 206.121L404.049 205.591C407.389 201.351 410.839 196.971 412.869 191.591C414.207 187.662 415.168 183.613 415.739 179.501C415.939 178.251 416.109 177.251 416.269 176.581C416.429 175.911 416.649 175.001 417.599 174.861C418.549 174.721 419.049 175.551 419.899 177.061C420.379 177.901 421.029 179.061 421.899 180.361C424.009 183.471 426.578 186.242 429.519 188.581C427.507 185.425 425.993 181.978 425.029 178.361C423.189 171.523 422.06 164.512 421.659 157.441C418.562 162.012 415.021 166.266 411.089 170.141C402.389 178.721 393.089 184.191 383.389 186.391C374.849 188.331 363.969 188.201 351.059 186.011C342.299 184.521 338.249 183.011 332.249 179.091C330.929 178.221 329.539 177.251 328.069 176.221C323.069 172.711 317.359 168.731 313.679 168.541C312.884 168.491 312.093 168.672 311.399 169.061C311.666 170.274 311.849 171.504 311.949 172.741C312.229 175.831 312.189 179.501 312.139 183.381C312.139 186.521 312.069 189.761 312.199 192.841C312.28 199.923 314.274 206.85 317.969 212.891C320.029 216.331 322.819 220.091 325.519 223.731C328.709 228.021 331.719 232.071 333.409 235.411C336.109 240.701 335.439 244.171 333.429 248.291ZM415.119 196.851C417.382 194.664 420.236 193.187 423.329 192.601C425.735 192.075 428.197 191.854 430.659 191.941C426.498 189.201 422.925 185.659 420.149 181.521C419.239 180.191 418.579 179.031 418.149 178.161C418.059 178.651 417.969 179.221 417.869 179.831C417.268 184.081 416.264 188.263 414.869 192.321C412.709 198.031 409.159 202.541 405.719 206.901L405.649 206.991C408.539 206.525 411.461 206.288 414.389 206.281C413.531 204.97 413.051 203.448 412.999 201.881C413.027 199.993 413.787 198.19 415.119 196.851ZM385.559 219.191C384.733 220.068 383.965 220.996 383.259 221.971C378.259 228.871 375.759 238.481 377.259 245.341C377.396 245.986 377.577 246.621 377.799 247.241C380.599 242.771 383.469 237.691 386.249 232.771C388.299 229.141 390.249 225.721 392.039 222.721C394.578 218.456 397.346 214.33 400.329 210.361C394.703 211.928 389.602 214.978 385.559 219.191ZM310.799 166.961C311.738 166.534 312.769 166.345 313.799 166.411C318.089 166.631 323.799 170.611 329.289 174.471C330.749 175.471 332.129 176.471 333.429 177.301C339.139 181.051 342.999 182.471 351.429 183.901C364.069 186.051 374.679 186.181 382.939 184.301C392.229 182.191 401.209 176.911 409.619 168.621C414.145 164.173 418.129 159.206 421.489 153.821C421.165 146.594 421.439 139.353 422.309 132.171L422.089 132.251C419.219 133.341 415.009 136.561 410.139 140.251L406.929 142.701C400.679 147.411 393.289 152.701 384.789 155.471C375.869 158.401 366.489 158.471 360.309 155.561C353.569 152.431 350.309 145.711 347.419 139.781L346.539 137.981C343.799 132.311 340.959 126.441 337.679 122.271C335.228 119.31 332.428 116.658 329.339 114.371C328.239 113.491 327.199 112.661 326.189 111.791C323.989 109.881 322.089 107.881 320.259 105.961C319.049 104.691 317.909 103.491 316.789 102.431C316.499 102.151 316.209 101.891 315.929 101.631C313.379 99.2914 310.739 96.8614 312.929 92.5414C314.09 90.5827 315.429 88.7349 316.929 87.0214C319.769 83.4814 323.309 79.0714 325.569 73.6314C326.834 70.3501 327.86 66.9813 328.639 63.5514C330.289 57.1314 331.989 50.5514 336.269 45.6014C338.943 42.6658 342.269 40.3984 345.979 38.9814C346.057 34.4469 345.171 29.9475 343.379 25.7814C339.859 17.4814 332.549 9.21144 325.189 5.19143C317.359 0.911435 308.949 1.10144 299.479 5.78144C290.189 10.3614 278.479 19.9314 273.369 30.9914C271.705 34.6449 270.69 38.5599 270.369 42.5614C276.679 43.6214 280.369 45.9414 282.369 50.0914C284.369 54.2414 284.689 59.6014 285.009 64.9214C285.009 65.6314 285.099 66.3414 285.139 67.0314C285.569 73.4314 286.259 77.9114 287.319 81.1314C287.818 82.5968 288.416 84.0267 289.109 85.4114C289.806 86.6551 290.29 88.0073 290.539 89.4114C290.586 89.9387 290.528 90.47 290.368 90.9747C290.209 91.4793 289.95 91.9473 289.609 92.3514C289.208 92.7954 288.723 93.1557 288.183 93.4114C287.642 93.6672 287.056 93.8133 286.459 93.8414C283.769 94.0014 281.459 91.9914 278.909 87.3514C275.909 81.7914 272.619 72.5314 270.379 63.1714C268.746 57.052 267.978 50.7339 268.099 44.4014L267.479 44.3314C257.669 43.3314 246.569 45.2714 233.479 50.3314C217.729 56.4414 196.319 68.3314 184.729 77.3814C173.139 86.4314 171.529 92.4514 172.729 100.291C172.789 100.741 172.869 101.191 172.959 101.651C175.329 103.1 177.541 104.792 179.559 106.701C184.153 110.849 188.299 115.467 191.929 120.481C194.279 123.891 195.599 126.851 195.929 129.411C197.229 130.001 198.529 130.551 199.829 131.031C205.966 133.294 212.448 134.481 218.989 134.541C224.439 134.651 230.249 134.211 235.769 130.251C238.805 127.866 241.623 125.216 244.189 122.331C247.048 119.209 250.1 116.27 253.329 113.531C254.059 112.931 254.789 112.361 255.519 111.831C256.465 109.134 257.773 106.577 259.409 104.231C263.482 98.8551 269.209 94.9657 275.709 93.1614C279.239 92.2514 282.029 92.5114 283.759 93.8914C284.44 94.4783 284.969 95.2216 285.299 96.0576C285.63 96.8936 285.754 97.7974 285.659 98.6914C285.579 101.621 284.149 105.611 282.369 109.991C285.394 113.935 287.217 118.668 287.619 123.621C288.029 128.281 287.189 132.621 286.379 136.871C286.049 138.591 285.739 140.241 285.519 141.871L286.419 141.931C290.111 142.03 293.748 141.009 296.849 139.001C296.921 137.763 296.871 136.52 296.699 135.291C296.314 133.262 295.683 131.287 294.819 129.411C293.595 126.629 292.664 123.726 292.039 120.751C290.799 114.401 290.729 104.211 292.759 98.1514C295.209 90.7914 300.399 90.5714 302.509 90.8114C306.949 91.3214 309.219 94.8114 309.879 102.221C310.669 111.071 309.219 124.831 304.979 132.911C303.515 135.738 301.441 138.204 298.909 140.131C298.829 141.321 298.699 142.521 298.579 143.701C298.341 145.465 298.221 147.242 298.219 149.021C298.289 151.651 298.999 152.901 299.449 153.101C299.899 153.301 300.269 152.971 300.869 152.431C303.509 150.001 307.249 142.331 308.619 134.781C309.18 131.194 309.494 127.572 309.559 123.941C309.719 119.471 309.859 117.091 310.839 115.941C311.085 115.647 311.407 115.426 311.77 115.302C312.134 115.179 312.524 115.158 312.899 115.241C315.549 115.791 318.579 120.911 319.969 125.541C321.659 131.151 321.729 138.351 320.169 145.811C318.609 153.271 315.799 158.651 311.619 162.101C310.782 162.775 309.9 163.39 308.979 163.941C309.741 164.84 310.346 165.861 310.769 166.961H310.799ZM424.519 131.871C423.754 137.947 423.42 144.069 423.519 150.191C423.909 149.431 424.279 148.671 424.619 147.921C427.569 141.441 427.489 137.261 426.909 134.921C426.835 134.361 426.644 133.823 426.348 133.342C426.051 132.861 425.656 132.449 425.189 132.131C424.974 132.002 424.736 131.913 424.489 131.871H424.519ZM309.559 170.811C308.079 173.011 307.039 176.811 306.339 182.481C305.289 190.861 305.009 203.481 309.589 215.641C313.589 226.401 321.669 237.691 331.759 246.831C333.349 243.401 333.679 240.661 331.499 236.351C329.889 233.161 326.929 229.181 323.799 224.971C321.069 221.291 318.249 217.491 316.139 213.971C312.247 207.652 310.149 200.392 310.069 192.971C309.929 189.831 309.969 186.561 309.999 183.401C310.049 179.571 310.089 175.951 309.819 172.971C309.779 172.161 309.689 171.461 309.559 170.811ZM348.029 40.4414C347.883 43.0796 347.505 45.6997 346.899 48.2714C345.347 55.1036 342.517 61.5806 338.559 67.3614C337.019 69.6314 335.319 71.8414 333.669 73.9714C331.201 76.9782 328.983 80.1823 327.039 83.5514C324.269 88.7814 323.689 93.8514 325.509 97.0914C326.559 98.9714 328.509 100.441 330.939 102.291C333.376 104.054 335.673 106.003 337.809 108.121C341.409 111.781 345.109 116.811 349.029 122.121C351.029 124.831 353.029 127.621 355.109 130.221C360.539 137.131 366.589 143.631 374.109 144.411C379.989 145.011 387.639 142.411 397.519 136.571C403.959 132.741 408.639 129.211 413.459 122.491C418.583 115.243 422.491 107.208 425.029 98.7014C427.249 90.5714 426.919 83.7714 423.929 76.6414C420.569 68.6414 414.319 61.2014 405.329 54.5814C394.159 46.3614 380.539 40.4614 368.889 38.8014C361.91 37.6867 354.767 38.2489 348.049 40.4414H348.029ZM307.299 162.441C308.336 161.864 309.32 161.195 310.239 160.441C314.089 157.271 316.579 152.441 318.069 145.361C319.559 138.281 319.499 131.411 317.909 126.131C316.279 120.691 313.309 117.331 312.429 117.291C311.869 118.011 311.749 121.201 311.639 124.021C311.566 127.75 311.231 131.469 310.639 135.151C309.139 143.501 305.189 151.281 302.239 153.991C300.629 155.461 299.349 155.381 298.569 155.041C296.479 154.161 296.089 150.931 296.039 149.041C296.041 147.165 296.165 145.292 296.409 143.431C296.479 142.811 296.549 142.181 296.609 141.551C293.455 143.299 289.881 144.147 286.279 144.001C285.929 144.001 285.579 144.001 285.279 143.941C285.279 144.051 285.279 144.151 285.279 144.261C284.949 150.261 286.959 155.261 290.649 157.461C292.969 158.871 296.109 159.381 299.139 159.881C301.221 160.145 303.271 160.618 305.259 161.291C305.984 161.585 306.675 161.957 307.319 162.401L307.299 162.441ZM283.199 167.441C286.832 167.64 290.477 167.388 294.049 166.691C297.828 166.084 301.521 165.026 305.049 163.541L304.459 163.281C302.609 162.665 300.703 162.233 298.769 161.991C295.539 161.461 292.199 160.911 289.529 159.291C285.099 156.591 282.769 151.081 283.149 144.171V143.641C281.387 143.271 279.711 142.572 278.209 141.581C279.079 146.521 280.209 150.581 281.209 154.251C282.153 157.296 282.845 160.413 283.279 163.571C283.42 164.856 283.4 166.152 283.219 167.431L283.199 167.441ZM183.839 144.341L183.639 144.551C181.734 146.532 180.338 148.945 179.569 151.584C178.801 154.222 178.684 157.008 179.229 159.701C180.579 165.541 185.599 170.971 193.379 174.991C200.859 178.861 212.109 182.061 223.489 183.551C232.385 184.783 241.422 184.567 250.249 182.911C260.039 181.171 269.349 178.241 274.549 175.281C277.639 173.521 279.549 171.631 280.549 169.281L279.499 169.101C275.419 168.351 270.209 166.561 268.939 163.991C267.869 161.831 269.639 159.851 271.519 157.751C271.969 157.241 272.439 156.751 272.889 156.171C275.529 152.981 276.829 150.061 276.539 147.961C276.249 145.861 274.259 143.741 271.199 142.271C270.236 141.836 269.252 141.452 268.249 141.121C266.38 140.571 264.613 139.72 263.019 138.601C260.509 136.711 257.679 133.041 258.489 126.321C259.149 120.861 262.269 113.321 265.129 108.781C262.352 109.926 259.724 111.4 257.299 113.171C256.188 116.549 255.286 119.993 254.599 123.481L254.469 124.091C253.189 129.951 252.089 135.001 246.469 139.881C239.77 145.365 231.652 148.833 223.059 149.881C213.989 150.701 206.259 147.061 200.539 143.781C197.467 142.059 194.544 140.086 191.799 137.881C190.999 138.541 190.139 139.191 189.259 139.881C187.331 141.203 185.524 142.692 183.859 144.331L183.839 144.341ZM278.199 151.221C277.353 153.528 276.092 155.66 274.479 157.511C273.999 158.091 273.479 158.631 273.059 159.151C271.379 161.031 270.389 162.221 270.799 163.041C271.409 164.291 274.969 166.111 279.849 167.041C280.259 167.121 280.679 167.181 281.099 167.241C281.269 166.102 281.293 164.946 281.169 163.801C280.747 160.752 280.078 157.742 279.169 154.801C278.879 153.701 278.559 152.461 278.219 151.211L278.199 151.221ZM298.959 137.311C300.636 135.764 302.027 133.932 303.069 131.901C307.379 123.711 308.389 109.711 307.739 102.391C307.039 94.5014 304.569 93.1614 302.239 92.8914C300.239 92.6614 296.629 93.1314 294.739 98.8014C293.019 103.931 292.739 113.391 294.089 120.321C294.681 123.164 295.572 125.937 296.749 128.591C297.666 130.624 298.338 132.759 298.749 134.951C298.871 135.73 298.948 136.514 298.979 137.301L298.959 137.311ZM277.709 138.361C279.25 139.954 281.231 141.05 283.399 141.511C283.619 139.881 283.939 138.211 284.269 136.511C285.059 132.431 285.869 128.211 285.479 123.841C285.123 119.713 283.719 115.744 281.399 112.311L280.759 113.841C280.079 115.441 279.389 117.111 278.759 118.671C277.786 121.044 276.955 123.471 276.269 125.941C276.709 130.111 277.149 134.391 277.729 138.351L277.709 138.361ZM268.489 107.701C268.279 107.951 268.039 108.251 267.779 108.601C264.919 112.601 261.249 120.921 260.569 126.601C259.889 132.281 262.199 135.381 264.269 136.941C265.693 137.918 267.262 138.664 268.919 139.151C270.003 139.499 271.065 139.913 272.099 140.391C273.721 141.149 275.192 142.196 276.439 143.481C276.319 142.871 276.209 142.251 276.099 141.621C275.989 140.991 275.849 140.111 275.729 139.331C274.862 138.269 274.207 137.05 273.799 135.741C272.889 132.741 273.219 129.351 274.139 125.741C274.139 125.471 274.089 125.201 274.059 124.931C273.529 119.621 273.059 114.611 272.359 111.281C272.134 109.893 271.706 108.545 271.089 107.281C270.213 107.357 269.344 107.498 268.489 107.701ZM273.409 107.231C273.85 108.409 274.185 109.624 274.409 110.861C274.929 113.411 275.339 116.861 275.729 120.651C276.069 119.731 276.429 118.801 276.789 117.881C277.419 116.291 278.129 114.621 278.789 113.011L279.849 110.461C278.61 109.136 277.055 108.148 275.329 107.591C274.704 107.393 274.061 107.262 273.409 107.201V107.231ZM272.069 105.061C273.393 105.023 274.716 105.192 275.989 105.561C277.764 106.121 279.393 107.067 280.759 108.331C282.259 104.561 283.469 101.051 283.529 98.6614C283.601 98.0968 283.538 97.5231 283.345 96.9875C283.152 96.452 282.835 95.9701 282.419 95.5814C281.249 94.6414 279.049 94.5214 276.229 95.2414C270.204 96.9133 264.895 100.518 261.119 105.501C260.178 106.822 259.364 108.228 258.689 109.701C261.385 107.987 264.311 106.664 267.379 105.771C267.77 105.262 268.285 104.863 268.875 104.61C269.465 104.358 270.111 104.262 270.749 104.331C271.247 104.433 271.705 104.676 272.069 105.031V105.061ZM193.359 136.391C195.942 138.442 198.684 140.285 201.559 141.901C207.339 145.211 214.399 148.491 222.829 147.721C231.259 146.951 240.279 142.391 245.039 138.261C249.799 134.131 250.989 129.961 252.369 123.621L252.499 123.011C253.009 120.651 253.579 118.011 254.329 115.431C251.29 118.05 248.409 120.845 245.699 123.801C243.042 126.777 240.127 129.51 236.989 131.971C230.989 136.291 224.739 136.781 218.919 136.661C212.139 136.592 205.422 135.361 199.059 133.021C198.009 132.621 196.939 132.191 195.879 131.721C195.754 132.604 195.465 133.455 195.029 134.231C194.572 135.023 194.01 135.75 193.359 136.391ZM270.199 44.7014C270.118 50.7751 270.868 56.8312 272.429 62.7014C275.049 73.7014 278.429 82.1214 280.759 86.3514C283.759 91.8914 285.689 91.7814 286.329 91.7514C286.642 91.7403 286.95 91.6674 287.234 91.5369C287.519 91.4065 287.776 91.2211 287.989 90.9914C288.15 90.8048 288.272 90.5869 288.346 90.3512C288.42 90.1155 288.445 89.8671 288.419 89.6214C288.174 88.4794 287.759 87.3805 287.189 86.3614C286.455 84.8969 285.823 83.3833 285.299 81.8314C284.179 78.4314 283.459 73.8314 283.019 67.2114C283.019 66.5214 282.929 65.8114 282.889 65.0914C282.579 59.9814 282.259 54.6914 280.469 51.0914C278.769 47.6114 275.629 45.6414 270.199 44.7014ZM191.729 135.041C192.298 134.502 192.789 133.886 193.189 133.211C193.595 132.471 193.825 131.646 193.859 130.801C190.049 128.991 186.299 126.871 182.799 124.801C183.119 125.271 183.439 125.741 183.799 126.201C186.08 129.45 188.743 132.415 191.729 135.031V135.041ZM180.439 121.041L182.079 122.041C185.679 124.131 189.579 126.411 193.549 128.371C192.813 125.997 191.684 123.762 190.209 121.761C186.666 116.881 182.624 112.383 178.149 108.341C176.736 107.007 175.229 105.777 173.639 104.661C175.191 110.379 177.477 115.871 180.439 121.001V121.041ZM122.369 119.861C118.785 123.692 115.907 128.127 113.869 132.961C108.959 144.661 108.599 159.831 113.029 168.261C117.729 177.181 127.669 178.631 135.409 177.001C144.529 175.081 151.919 169.061 154.239 161.661C156.139 155.581 154.749 148.011 153.519 141.341C153.149 139.341 152.799 137.451 152.519 135.611C152.068 132.481 151.82 129.324 151.779 126.161C150.96 126.485 150.076 126.612 149.199 126.531C147.825 126.391 146.494 125.97 145.29 125.294C144.086 124.618 143.034 123.701 142.199 122.601C139.959 119.731 138.769 115.111 138.909 110.311C137.545 110.392 136.199 110.661 134.909 111.111C131.159 112.341 126.559 115.351 122.369 119.821V119.861ZM143.119 97.8614C143.57 97.3658 144.089 96.935 144.659 96.5814C145.316 96.1638 146.055 95.8915 146.826 95.7829C147.596 95.6742 148.382 95.7317 149.129 95.9514C152.379 96.8714 155.949 100.771 159.739 104.951C161.279 106.631 162.879 108.381 164.439 109.891C168.205 113.445 172.405 116.509 176.939 119.011C174.316 113.949 172.35 108.572 171.089 103.011C168.406 101.516 165.638 100.18 162.799 99.0114C152.869 94.7814 139.359 90.2714 122.919 92.9414C106.919 95.5214 88.7587 104.721 73.0387 113.381C61.0587 119.951 56.5587 122.701 53.5587 126.231C52.4842 127.528 51.4826 128.884 50.5587 130.291C48.9137 132.995 46.8205 135.4 44.3687 137.401C43.2957 138.199 42.1468 138.889 40.9387 139.461C41.4487 139.821 41.9387 140.221 42.4887 140.651C43.3362 141.345 44.1317 142.101 44.8687 142.911C47.4146 141.395 49.8178 139.652 52.0487 137.701C54.8187 135.341 57.7587 132.461 60.6187 129.701C64.0187 126.381 67.5487 122.941 70.9087 120.221C77.3987 114.961 83.3687 112.311 90.3387 109.941C98.9621 107.043 107.827 104.921 116.829 103.601C121.699 102.881 132.419 101.531 140.529 102.281C141.108 100.659 141.986 99.1597 143.119 97.8614ZM141.029 110.371C140.899 114.661 141.929 118.761 143.879 121.261C144.528 122.13 145.351 122.856 146.293 123.393C147.236 123.93 148.28 124.266 149.359 124.381C149.744 124.436 150.136 124.413 150.512 124.313C150.889 124.214 151.241 124.04 151.549 123.801C151.636 123.71 151.713 123.61 151.779 123.501C151.779 122.621 151.779 121.771 151.779 120.941C151.779 120.671 151.779 120.401 151.779 120.141C151.206 118.361 150.296 116.708 149.099 115.271C147.133 112.667 144.246 110.914 141.029 110.371ZM141.179 108.261C144.986 108.853 148.42 110.887 150.769 113.941C151.119 114.371 151.449 114.811 151.769 115.261C151.499 110.011 150.229 106.671 144.919 105.161C143.932 104.898 142.93 104.698 141.919 104.561C141.723 105.219 141.563 105.887 141.439 106.561C141.339 107.128 141.252 107.695 141.179 108.261ZM11.6987 149.781L11.5187 149.981C6.87865 155.101 3.84865 164.601 2.66865 171.181C1.27865 178.861 2.47865 182.721 6.93865 184.941C12.5487 187.731 22.4186 187.871 30.4387 182.741C39.0486 177.231 45.6187 165.741 47.0187 157.911C47.4788 155.779 47.473 153.573 47.0019 151.443C46.5307 149.313 45.6052 147.311 44.2887 145.571C41.7887 146.791 39.3487 147.441 37.2887 146.991C36.2311 146.723 35.2517 146.21 34.4298 145.492C33.608 144.774 32.9669 143.873 32.5587 142.861C32.4887 142.701 32.4287 142.551 32.3687 142.391C30.7087 142.791 29.0687 143.131 27.5387 143.391L25.8986 143.701C20.6087 144.701 15.6087 145.611 11.6987 149.781ZM34.4287 141.851L34.4987 142.011C34.7724 142.717 35.2084 143.348 35.7713 143.853C36.3341 144.359 37.0081 144.725 37.7387 144.921C39.511 145.128 41.3038 144.779 42.8687 143.921C42.3062 143.342 41.712 142.795 41.0887 142.281C40.296 141.618 39.4535 141.016 38.5687 140.481C37.2287 141.001 35.8287 141.451 34.4287 141.851ZM34.0987 139.741L35.7587 139.241C35.3918 139.135 35.0068 139.108 34.6287 139.161C34.5443 139.164 34.4617 139.187 34.3884 139.228C34.3151 139.27 34.2533 139.33 34.2087 139.401C34.1546 139.494 34.1173 139.596 34.0987 139.701V139.741Z" fill="#258F7D"/>
</svg>
